<svg width="241" height="201" viewBox="0 0 241 201" fill="none" xmlns="http://www.w3.org/2000/svg">
<g clip-path="url(#clip0_7689_12314)">
<path d="M100.786 141.871H9.25286C4.94499 141.871 1.45178 138.381 1.45178 134.076V108.617C1.45178 104.313 4.94499 100.822 9.25286 100.822H100.788C105.096 100.822 108.589 104.313 108.589 108.617V134.076C108.587 138.381 105.094 141.871 100.786 141.871Z" fill="#E1E1E1" fill-opacity="0.26"/>
<path d="M99.3345 140.42H7.80108C3.49321 140.42 0 136.93 0 132.625V107.166C0 102.861 3.49321 99.3711 7.80108 99.3711H99.3366C103.644 99.3711 107.138 102.861 107.138 107.166V132.625C107.136 136.93 103.642 140.42 99.3345 140.42Z" fill="white"/>
<path d="M58.4784 111.661H33.0018C32.4364 111.661 31.9736 111.199 31.9736 110.634V108.874C31.9736 108.309 32.4364 107.847 33.0018 107.847H58.4784C59.0439 107.847 59.5067 108.309 59.5067 108.874V110.634C59.5067 111.199 59.0439 111.661 58.4784 111.661Z" fill="#DBEDF6"/>
<path d="M58.2626 121.428H33.2175C32.5327 121.428 31.9735 120.87 31.9735 120.185C31.9735 119.501 32.5327 118.942 33.2175 118.942H58.2626C58.9475 118.942 59.5066 119.501 59.5066 120.185C59.5066 120.87 58.9475 121.428 58.2626 121.428Z" fill="#DBEDF6"/>
<path d="M47.4912 127.315H32.6074C32.2577 127.315 31.9708 127.028 31.9708 126.679V125.463C31.9708 125.113 32.2577 124.827 32.6074 124.827H47.4912C47.841 124.827 48.1279 125.113 48.1279 125.463V126.679C48.1279 127.028 47.841 127.315 47.4912 127.315Z" fill="#DBEDF6"/>
<path d="M76.6139 127.315H52.7918C52.352 127.315 51.9939 126.955 51.9939 126.517V125.626C51.9939 125.186 52.352 124.829 52.7918 124.829H76.6118C77.0516 124.829 77.4097 125.186 77.4097 125.626V126.517C77.4118 126.957 77.0516 127.315 76.6139 127.315Z" fill="#DBEDF6"/>
<path d="M97.7281 121.428H64.8882C64.2033 121.428 63.6442 120.87 63.6442 120.185C63.6442 119.501 64.2033 118.942 64.8882 118.942H97.7281C98.4129 118.942 98.9721 119.501 98.9721 120.185C98.9721 120.87 98.4129 121.428 97.7281 121.428Z" fill="#DBEDF6"/>
<path d="M58.262 133.201H33.2168C32.532 133.201 31.9728 132.642 31.9728 131.958C31.9728 131.274 32.532 130.715 33.2168 130.715H58.262C58.9468 130.715 59.5059 131.274 59.5059 131.958C59.5059 132.642 58.9468 133.201 58.262 133.201Z" fill="#DBEDF6"/>
<path d="M97.7281 133.201H64.8882C64.2033 133.201 63.6442 132.642 63.6442 131.958C63.6442 131.274 64.2033 130.715 64.8882 130.715H97.7281C98.4129 130.715 98.9721 131.274 98.9721 131.958C98.9721 132.642 98.4129 133.201 97.7281 133.201Z" fill="#DBEDF6"/>
<path d="M82.239 111.66H63.7992C63.3154 111.66 62.9175 111.265 62.9175 110.78V108.725C62.9175 108.241 63.3133 107.844 63.7992 107.844H82.239C82.7228 107.844 83.1207 108.239 83.1207 108.725V110.78C83.1207 111.265 82.7228 111.66 82.239 111.66Z" fill="#DBEDF6"/>
<path d="M14.5571 128.47C19.2958 128.47 23.1373 124.631 23.1373 119.897C23.1373 115.162 19.2958 111.324 14.5571 111.324C9.81845 111.324 5.97699 115.162 5.97699 119.897C5.97699 124.631 9.81845 128.47 14.5571 128.47Z" fill="#36A9E1"/>
<path d="M19.0451 112.579C19.8995 113.912 20.3959 115.496 20.3959 117.197C20.3959 121.933 16.555 125.77 11.8157 125.77C10.1697 125.77 8.63248 125.308 7.32776 124.504C8.85237 126.883 11.5204 128.459 14.5571 128.459C19.2964 128.459 23.1372 124.621 23.1372 119.886C23.1352 116.796 21.4995 114.088 19.0451 112.579Z" fill="#36A9E1"/>
<path d="M12.0273 117.817C12.0273 118.405 11.7446 118.882 11.3949 118.882C11.0451 118.882 10.7624 118.405 10.7624 117.817C10.7624 117.229 11.0451 116.752 11.3949 116.752C11.7446 116.752 12.0273 117.229 12.0273 117.817Z" fill="#1C4E67"/>
<path d="M18.3499 117.817C18.3499 118.405 18.0672 118.882 17.7174 118.882C17.3677 118.882 17.085 118.405 17.085 117.817C17.085 117.229 17.3677 116.752 17.7174 116.752C18.0672 116.752 18.3499 117.229 18.3499 117.817Z" fill="#1C4E67"/>
<path d="M8.79169 120.707C9.11839 123.598 11.5749 125.848 14.5572 125.848C17.5394 125.848 19.9959 123.598 20.3226 120.707H8.79169Z" fill="#1C4E67"/>
<path d="M10.5739 124.264C11.6126 125.245 13.0137 125.848 14.555 125.848C16.0315 125.848 17.3781 125.298 18.4022 124.39L18.3498 124.264C14.4775 122.379 10.6262 124.239 10.5739 124.264Z" fill="#DBEDF6" fill-opacity="0.55"/>
<path d="M228.487 71.5752H131.509C126.347 71.5752 122.164 67.3944 122.164 62.2385V32.3617C122.164 27.2036 126.349 23.0249 131.509 23.0249H228.487C233.65 23.0249 237.832 27.2057 237.832 32.3617V62.2364C237.832 67.3944 233.648 71.5752 228.487 71.5752Z" fill="#E1E1E1" fill-opacity="0.34"/>
<path d="M227.036 70.1241H130.057C124.895 70.1241 120.713 65.9433 120.713 60.7873V30.9105C120.713 25.7525 124.897 21.5737 130.057 21.5737H227.036C232.198 21.5737 236.38 25.7546 236.38 30.9105V60.7852C236.38 65.9433 232.196 70.1241 227.036 70.1241Z" fill="white"/>
<path d="M240.274 146.8V133.132C240.274 130.355 239.185 127.738 237.206 125.762C235.229 123.787 232.609 122.697 229.83 122.697H154.412C151.633 122.697 149.013 123.785 147.036 125.762C145.059 127.738 143.968 130.355 143.968 133.132V146.8C143.968 149.577 145.057 152.195 147.036 154.17C149.013 156.146 151.633 157.236 154.412 157.236H223.2C225.734 159.841 230.653 162.626 235.874 164.396C236.017 164.444 236.165 164.47 236.314 164.47C236.775 164.47 237.212 164.225 237.455 163.831C237.694 163.444 237.713 162.969 237.506 162.559C236.448 160.469 235.671 158.177 235.196 155.742C238.341 153.85 240.274 150.475 240.274 146.8Z" fill="#F0F1F1"/>
<path d="M238.937 145.98V132.311C238.937 126.997 234.585 122.65 229.268 122.65H153.848C148.528 122.65 144.179 126.999 144.179 132.311V145.98C144.179 151.295 148.53 155.641 153.848 155.641H224.47C226.826 158.208 230.324 161.067 235.557 162.843C236.032 163.004 236.472 162.527 236.248 162.088C235.488 160.585 233.949 158.332 233.766 154.519C236.835 152.895 238.937 149.671 238.937 145.98Z" fill="white"/>
<path d="M26.8901 25.4992V11.4878C26.8901 8.64196 28.0064 5.95937 30.0336 3.93382C32.0608 1.90828 34.7457 0.792969 37.5938 0.792969H118.325C121.173 0.792969 123.858 1.90828 125.885 3.93382C127.913 5.95937 129.029 8.64196 129.029 11.4878V25.4992C129.029 28.345 127.913 31.0276 125.885 33.0532C123.858 35.0787 121.173 36.194 118.325 36.194H44.3918C41.7949 38.8641 36.7499 41.7203 31.3991 43.5345C31.2525 43.5847 31.1017 43.6099 30.9488 43.6099C30.4755 43.6099 30.0273 43.3588 29.7802 42.9549C29.5352 42.5573 29.5163 42.0698 29.7278 41.6513C30.8127 39.5085 31.6085 37.1607 32.0964 34.6623C28.8713 32.7267 26.8901 29.2657 26.8901 25.4992Z" fill="#F0F1F1"/>
<path d="M119.649 0H38.9175C33.4661 0 29.0054 4.45704 29.0054 9.90384V23.9153C29.0054 27.7006 31.1604 31.0047 34.3017 32.6703C34.1153 36.577 32.5363 38.8872 31.7572 40.4272C31.5289 40.8792 31.9792 41.3668 32.4672 41.2015C37.8326 39.381 41.418 36.4494 43.8327 33.8191H119.649C125.1 33.8191 129.561 29.3621 129.561 23.9153V9.90384C129.561 4.45704 125.1 0 119.649 0Z" fill="white"/>
<path d="M35.7028 178.813V161.651C35.7028 158.165 36.819 154.877 38.8462 152.395C40.8735 149.914 43.5583 148.547 46.4065 148.547H146.512C149.36 148.547 152.045 149.914 154.072 152.395C156.099 154.877 157.215 158.165 157.215 161.651V178.813C157.215 182.3 156.099 185.587 154.072 188.069C152.045 190.55 149.36 191.917 146.512 191.917H53.2065C50.6096 195.187 45.5646 198.686 40.2138 200.91C40.0672 200.971 39.9164 201.002 39.7635 201.002C39.2902 201.002 38.842 200.695 38.5949 200.201C38.3499 199.713 38.331 199.117 38.5426 198.604C39.6274 195.98 40.4232 193.103 40.9112 190.044C37.6839 187.667 35.7028 183.427 35.7028 178.813Z" fill="#F0F1F1"/>
<path d="M147.835 147.576H47.73C42.2787 147.576 37.8179 153.036 37.8179 159.709V176.871C37.8179 181.508 39.9729 185.555 43.1143 187.595C42.9279 192.381 41.3488 195.212 40.5698 197.097C40.3415 197.65 40.7918 198.248 41.2797 198.047C46.6452 195.817 50.2306 192.226 52.6452 189.004H147.835C153.286 189.004 157.747 183.544 157.747 176.871V159.709C157.747 153.036 153.286 147.576 147.835 147.576Z" fill="white"/>
<path d="M132.493 179.573C138.714 179.573 143.758 174.534 143.758 168.318C143.758 162.101 138.714 157.062 132.493 157.062C126.271 157.062 121.228 162.101 121.228 168.318C121.228 174.534 126.271 179.573 132.493 179.573Z" fill="#313bac"/>
<path d="M127.875 169.479C127.584 169.196 127.119 169.508 127.27 169.885C128.101 171.963 130.135 173.432 132.512 173.432C134.849 173.432 136.853 172.013 137.712 169.989C137.869 169.621 137.4 169.301 137.111 169.579C135.462 171.174 131.963 173.446 127.875 169.479Z" fill="#971905" fill-opacity="0.45"/>
<path d="M135.399 165.857C135.718 166.654 136.478 167.167 137.337 167.167C138.176 167.167 138.93 166.667 139.259 165.895C139.322 165.746 139.272 165.579 139.14 165.489C139.006 165.397 138.832 165.411 138.717 165.524C138.093 166.129 137.104 166.617 135.946 165.491C135.881 165.428 135.797 165.395 135.711 165.395C135.647 165.395 135.582 165.413 135.525 165.451C135.391 165.541 135.341 165.706 135.399 165.857Z" fill="#971905" fill-opacity="0.45"/>
<path d="M125.722 165.857C126.04 166.654 126.8 167.167 127.659 167.167C128.499 167.167 129.253 166.667 129.582 165.895C129.644 165.746 129.596 165.579 129.462 165.489C129.328 165.397 129.154 165.411 129.039 165.524C128.415 166.129 127.427 166.617 126.269 165.491C126.204 165.428 126.12 165.395 126.034 165.395C125.969 165.395 125.904 165.413 125.848 165.451C125.714 165.541 125.661 165.706 125.722 165.857Z" fill="#971905" fill-opacity="0.45"/>
<path d="M71.532 10.8151H45.7874C45.2219 10.8151 44.7591 10.3526 44.7591 9.78764V7.99227C44.7591 7.42729 45.2219 6.96484 45.7874 6.96484H71.532C72.0974 6.96484 72.5603 7.42729 72.5603 7.99227V9.78764C72.5603 10.3526 72.0974 10.8151 71.532 10.8151Z" fill="#313bac"/>
<path d="M71.3029 20.6761H46.0128C45.3217 20.6761 44.7562 20.1111 44.7562 19.4205C44.7562 18.73 45.3217 18.165 46.0128 18.165H71.3008C71.9919 18.165 72.5574 18.73 72.5574 19.4205C72.5595 20.1111 71.994 20.6761 71.3029 20.6761Z" fill="#313bac"/>
<path d="M60.4338 26.6189H45.3929C45.0431 26.6189 44.7562 26.3322 44.7562 25.9828V24.744C44.7562 24.3946 45.0431 24.1079 45.3929 24.1079H60.4338C60.7835 24.1079 61.0704 24.3946 61.0704 24.744V25.9849C61.0704 26.3322 60.7835 26.6189 60.4338 26.6189Z" fill="#313bac"/>
<path d="M89.8392 26.6189H65.772C65.3322 26.6189 64.9741 26.2611 64.9741 25.8217V24.9052C64.9741 24.4657 65.3322 24.1079 65.772 24.1079H89.8392C90.2789 24.1079 90.6371 24.4657 90.6371 24.9052V25.8217C90.6371 26.2611 90.2789 26.6189 89.8392 26.6189Z" fill="#313bac"/>
<path d="M111.152 20.676H77.9941C77.303 20.676 76.7375 20.1111 76.7375 19.4205C76.7375 18.73 77.303 18.165 77.9941 18.165H111.152C111.843 18.165 112.409 18.73 112.409 19.4205C112.409 20.1111 111.843 20.676 111.152 20.676Z" fill="#313bac"/>
<path d="M95.5208 10.8142H76.8841C76.4003 10.8142 76.0024 10.4187 76.0024 9.93327V7.84286C76.0024 7.35949 76.3983 6.96191 76.8841 6.96191H95.5208C96.0046 6.96191 96.4025 7.3574 96.4025 7.84286V9.93327C96.4025 10.4187 96.0046 10.8142 95.5208 10.8142Z" fill="#313bac"/>
<path d="M186.267 37.5604H218.65C219.446 37.5604 220.097 36.9096 220.097 36.1145V35.4239C220.097 34.6288 219.446 33.978 218.65 33.978H186.267C185.471 33.978 184.82 34.6288 184.82 35.4239V36.1145C184.82 36.9096 185.471 37.5604 186.267 37.5604Z" fill="#F09096" fill-opacity="0.51"/>
<path d="M186.416 46.6668H218.504C219.381 46.6668 220.097 46.1416 220.097 45.4992C220.097 44.8568 219.379 44.3315 218.504 44.3315H186.416C185.538 44.3315 184.822 44.8568 184.822 45.4992C184.82 46.1416 185.538 46.6668 186.416 46.6668Z" fill="#F09096" fill-opacity="0.51"/>
<path d="M200.294 52.193H219.203C219.695 52.193 220.097 51.7913 220.097 51.2995V50.7534C220.097 50.2616 219.695 49.8599 219.203 49.8599H200.294C199.802 49.8599 199.4 50.2616 199.4 50.7534V51.2995C199.398 51.7892 199.802 52.193 200.294 52.193Z" fill="#F09096" fill-opacity="0.51"/>
<path d="M163.004 52.1931H193.322C193.94 52.1931 194.445 51.6889 194.445 51.0716V50.9795C194.445 50.3622 193.94 49.8579 193.322 49.8579H163.004C162.386 49.8579 161.881 50.3622 161.881 50.9795V51.0716C161.881 51.6868 162.386 52.1931 163.004 52.1931Z" fill="#F09096" fill-opacity="0.51"/>
<path d="M135.85 46.6668H177.923C178.801 46.6668 179.517 46.1416 179.517 45.4992C179.517 44.8568 178.799 44.3315 177.923 44.3315H135.85C134.972 44.3315 134.256 44.8568 134.256 45.4992C134.256 46.1416 134.974 46.6668 135.85 46.6668Z" fill="#F09096" fill-opacity="0.51"/>
<path d="M186.416 57.7171H218.504C219.381 57.7171 220.097 57.1918 220.097 56.5494C220.097 55.9071 219.379 55.3818 218.504 55.3818H186.416C185.538 55.3818 184.822 55.9071 184.822 56.5494C184.82 57.1918 185.538 57.7171 186.416 57.7171Z" fill="#F09096" fill-opacity="0.51"/>
<path d="M135.85 57.7171H177.923C178.801 57.7171 179.517 57.1918 179.517 56.5494C179.517 55.9071 178.799 55.3818 177.923 55.3818H135.85C134.972 55.3818 134.256 55.9071 134.256 56.5494C134.256 57.1918 134.974 57.7171 135.85 57.7171Z" fill="#F09096" fill-opacity="0.51"/>
<path d="M155.806 37.5604H179.209C179.892 37.5604 180.449 37.0038 180.449 36.3216V35.2168C180.449 34.5346 179.892 33.978 179.209 33.978H155.806C155.125 33.978 154.566 34.5346 154.566 35.2168V36.3216C154.566 37.0017 155.125 37.5604 155.806 37.5604Z" fill="#F09096" fill-opacity="0.51"/>
<path d="M91.5236 74.6311H66.2356C65.5445 74.6311 64.979 74.0661 64.979 73.3756C64.979 72.6851 65.5445 72.1201 66.2356 72.1201H91.5236C92.2147 72.1201 92.7802 72.6851 92.7802 73.3756C92.7802 74.0661 92.2147 74.6311 91.5236 74.6311Z" fill="#699DEE"/>
<path d="M80.6538 80.574H65.6128C65.2631 80.574 64.9762 80.2873 64.9762 79.9379V78.6991C64.9762 78.3497 65.2631 78.063 65.6128 78.063H80.6538C81.0035 78.063 81.2904 78.3497 81.2904 78.6991V79.94C81.2904 80.2894 81.0035 80.574 80.6538 80.574Z" fill="#699DEE"/>
<path d="M110.061 80.574H85.9919C85.5521 80.574 85.194 80.2162 85.194 79.7768V78.8602C85.194 78.4208 85.5521 78.063 85.9919 78.063H110.059C110.499 78.063 110.857 78.4208 110.857 78.8602V79.7768C110.859 80.2162 110.499 80.574 110.061 80.574Z" fill="#699DEE"/>
<path d="M131.372 74.6311H98.2141C97.523 74.6311 96.9575 74.0661 96.9575 73.3756C96.9575 72.6851 97.523 72.1201 98.2141 72.1201H131.372C132.063 72.1201 132.629 72.6851 132.629 73.3756C132.629 74.0661 132.063 74.6311 131.372 74.6311Z" fill="#699DEE"/>
<path d="M138.048 62.4395H64.6864C60.368 62.4395 56.835 66.8965 56.835 72.3433V86.3547C56.835 90.1401 58.5418 93.4441 61.0298 95.1098C60.8811 99.0165 59.6329 101.327 59.0151 102.867C58.835 103.319 59.1911 103.806 59.5764 103.641C63.8277 101.82 66.6654 98.8888 68.5796 96.2586H138.048C142.366 96.2586 145.899 91.8015 145.899 86.3547V72.3433C145.899 66.8965 142.366 62.4395 138.048 62.4395Z" fill="#E1E1E1" fill-opacity="0.27"/>
<path d="M137.322 60.9883H63.9605C59.6421 60.9883 56.1091 65.4453 56.1091 70.8921V84.9036C56.1091 88.6889 57.8159 91.993 60.3039 93.6586C60.1552 97.5653 58.907 99.8754 58.2892 101.416C58.1091 101.868 58.4652 102.355 58.8505 102.19C63.1018 100.369 65.9395 97.4377 67.8537 94.8074H137.322C141.64 94.8074 145.173 90.3503 145.173 84.9036V70.8921C145.173 65.4453 141.64 60.9883 137.322 60.9883Z" fill="white"/>
<path d="M49.7447 168.794H112.834C113.693 168.794 114.396 168.091 114.396 167.233C114.396 166.375 113.693 165.672 112.834 165.672H49.7447C48.8861 165.672 48.1824 166.375 48.1824 167.233C48.1824 168.091 48.8861 168.794 49.7447 168.794Z" fill="#FAD9D3"/>
<path d="M49.7447 175.781H112.834C113.693 175.781 114.396 175.078 114.396 174.22C114.396 173.362 113.693 172.659 112.834 172.659H49.7447C48.8861 172.659 48.1824 173.362 48.1824 174.22C48.1824 175.08 48.8861 175.781 49.7447 175.781Z" fill="#FAD9D3"/>
<path d="M49.7447 182.77H112.834C113.693 182.77 114.396 182.067 114.396 181.209C114.396 180.351 113.693 179.648 112.834 179.648H49.7447C48.8861 179.648 48.1824 180.351 48.1824 181.209C48.1824 182.067 48.8861 182.77 49.7447 182.77Z" fill="#FAD9D3"/>
<path d="M84.1177 157.94H110.901C111.923 157.94 112.761 157.103 112.761 156.082C112.761 155.061 111.923 154.224 110.901 154.224H84.1177C83.0957 154.224 82.258 155.061 82.258 156.082C82.258 157.106 83.0936 157.94 84.1177 157.94Z" fill="#FAD9D3"/>
<path d="M61.0997 157.94H77.215C78.0234 157.94 78.6852 157.279 78.6852 156.471V155.693C78.6852 154.885 78.0234 154.224 77.215 154.224H61.0997C60.2914 154.224 59.6296 154.885 59.6296 155.693V156.471C59.6296 157.281 60.2914 157.94 61.0997 157.94Z" fill="#FAD9D3"/>
<path d="M184.841 134.414H158.526C157.808 134.414 157.219 133.845 157.219 133.148C157.219 132.451 157.808 131.882 158.526 131.882H184.841C185.559 131.882 186.147 132.451 186.147 133.148C186.147 133.843 185.559 134.414 184.841 134.414Z" fill="#36A9E1"/>
<path d="M173.297 140.407H158.114C157.622 140.407 157.219 140.005 157.219 139.513V138.768C157.219 138.277 157.622 137.875 158.114 137.875H173.299C173.791 137.875 174.193 138.277 174.193 138.768V139.513C174.193 140.005 173.789 140.407 173.297 140.407Z" fill="#36A9E1"/>
<path d="M203.838 140.407H179.377C178.759 140.407 178.254 139.903 178.254 139.285V138.997C178.254 138.379 178.759 137.875 179.377 137.875H203.835C204.453 137.875 204.958 138.379 204.958 138.997V139.285C204.96 139.903 204.453 140.407 203.838 140.407Z" fill="#36A9E1"/>
<path d="M226.305 134.414H191.802C191.083 134.414 190.495 133.845 190.495 133.148C190.495 132.451 191.083 131.882 191.802 131.882H226.305C227.023 131.882 227.611 132.451 227.611 133.148C227.614 133.843 227.025 134.414 226.305 134.414Z" fill="#36A9E1"/>
<path d="M184.841 146.402H158.526C157.808 146.402 157.219 145.833 157.219 145.136C157.219 144.439 157.808 143.87 158.526 143.87H184.841C185.559 143.87 186.147 144.439 186.147 145.136C186.147 145.833 185.559 146.402 184.841 146.402Z" fill="#36A9E1"/>
<path d="M94.7962 72.9742H69.7511C69.0662 72.9742 68.5071 72.4155 68.5071 71.7312C68.5071 71.047 69.0662 70.4883 69.7511 70.4883H94.7962C95.481 70.4883 96.0402 71.047 96.0402 71.7312C96.0423 72.4155 95.481 72.9742 94.7962 72.9742Z" fill="#36A9E1"/>
<path d="M84.0276 78.8605H69.1437C68.794 78.8605 68.5071 78.5739 68.5071 78.2244V77.0087C68.5071 76.6592 68.794 76.3726 69.1437 76.3726H84.0276C84.3773 76.3726 84.6642 76.6592 84.6642 77.0087V78.2244C84.6621 78.5739 84.3773 78.8605 84.0276 78.8605Z" fill="#36A9E1"/>
<path d="M113.148 78.8604H89.3281C88.8883 78.8604 88.5302 78.5005 88.5302 78.0632V77.1718C88.5302 76.7323 88.8883 76.3745 89.3281 76.3745H113.148C113.588 76.3745 113.946 76.7323 113.946 77.1718V78.0632C113.946 78.5026 113.588 78.8604 113.148 78.8604Z" fill="#36A9E1"/>
<path d="M113.795 84.7467H80.9553C80.2705 84.7467 79.7113 84.1879 79.7113 83.5037C79.7113 82.8194 80.2705 82.2607 80.9553 82.2607H113.795C114.48 82.2607 115.039 82.8194 115.039 83.5037C115.039 84.1879 114.48 84.7467 113.795 84.7467Z" fill="#36A9E1"/>
<path d="M127.383 86.6905C132.122 86.6905 135.963 82.8522 135.963 78.1174C135.963 73.3827 132.122 69.5444 127.383 69.5444C122.644 69.5444 118.803 73.3827 118.803 78.1174C118.803 82.8522 122.644 86.6905 127.383 86.6905Z" fill="#36A9E1"/>
<path d="M125.803 75.4368C125.803 75.4327 125.803 75.4285 125.803 75.4243C125.803 74.6333 125.229 73.9072 124.368 73.9072C123.684 73.9072 123.288 74.399 123.152 74.8593C123.015 74.399 122.62 73.9072 121.935 73.9072C121.074 73.9072 120.5 74.6312 120.5 75.4243C120.5 75.4285 120.5 75.4327 120.5 75.4368C120.496 75.6084 120.5 77.362 123.152 78.789C125.803 77.3599 125.807 75.6084 125.803 75.4368Z" fill="#1C4E67"/>
<path d="M133.472 75.4368C133.472 75.4327 133.472 75.4285 133.472 75.4243C133.472 74.6333 132.898 73.9072 132.037 73.9072C131.353 73.9072 130.957 74.399 130.821 74.8593C130.685 74.399 130.289 73.9072 129.604 73.9072C128.743 73.9072 128.169 74.6312 128.169 75.4243C128.169 75.4285 128.169 75.4327 128.169 75.4368C128.165 75.6084 128.169 77.362 130.821 78.789C133.472 77.3599 133.476 75.6084 133.472 75.4368Z" fill="#1C4E67"/>
<path d="M186.973 102.079V88.0679C186.973 85.222 185.856 82.5394 183.829 80.5139C181.802 78.4883 179.117 77.373 176.269 77.373H143.783C140.935 77.373 138.25 78.4883 136.223 80.5139C134.195 82.5394 133.079 85.222 133.079 88.0679V102.079C133.079 104.925 134.195 107.608 136.223 109.633C138.25 111.659 140.935 112.774 143.783 112.774H169.469C172.066 115.444 177.111 118.3 182.462 120.115C182.608 120.165 182.759 120.19 182.912 120.19C183.385 120.19 183.833 119.939 184.08 119.535C184.325 119.137 184.344 118.65 184.133 118.231C183.048 116.089 182.252 113.741 181.764 111.242C184.991 109.307 186.973 105.846 186.973 102.079Z" fill="#E1E1E1" fill-opacity="0.33"/>
<path d="M184.857 101.219V87.2075C184.857 81.7608 180.397 77.3037 174.945 77.3037H142.461C137.01 77.3037 132.549 81.7608 132.549 87.2075V101.219C132.549 106.666 137.01 111.123 142.461 111.123H170.03C172.445 113.753 176.03 116.685 181.396 118.505C181.881 118.67 182.334 118.181 182.106 117.731C181.326 116.191 179.749 113.881 179.561 109.974C182.702 108.308 184.857 105.004 184.857 101.219Z" fill="white"/>
<path d="M167.574 91.4425C167.574 91.4258 167.576 91.4111 167.576 91.3965C167.576 88.4377 165.435 85.73 162.214 85.73C159.655 85.73 158.172 87.5672 157.666 89.2872C157.159 87.5672 155.676 85.73 153.117 85.73C149.898 85.73 147.756 88.4377 147.756 91.3965C147.756 91.4132 147.758 91.4279 147.758 91.4425C147.741 92.087 147.756 98.6345 157.661 103.972V103.975C157.661 103.975 157.661 103.975 157.664 103.975C157.664 103.975 157.664 103.975 157.666 103.975C157.666 103.975 157.666 103.975 157.668 103.975C157.668 103.975 157.668 103.975 157.67 103.975V103.972C167.574 98.6345 167.59 92.087 167.574 91.4425Z" fill="#FAD9D3"/>
<path d="M121.349 79.8438C121.675 82.7356 124.132 84.9851 127.114 84.9851C130.096 84.9851 132.553 82.7356 132.88 79.8438H121.349Z" fill="#1C4E67"/>
<path d="M123.131 83.4012C124.169 84.3826 125.57 84.9852 127.112 84.9852C128.588 84.9852 129.935 84.4349 130.959 83.5267L130.907 83.4012C127.034 81.5158 123.183 83.3761 123.131 83.4012Z" fill="#2F92C2" fill-opacity="0.54"/>
</g>
<defs>
<clipPath id="clip0_7689_12314">
<rect width="241" height="201" fill="white"/>
</clipPath>
</defs>
</svg>
