<svg width="24" height="25" viewBox="0 0 24 25" fill="none" xmlns="http://www.w3.org/2000/svg">
<path d="M15 23.25H9C3.57 23.25 1.25 20.93 1.25 15.5V9.5C1.25 4.07 3.57 1.75 9 1.75H15C20.43 1.75 22.75 4.07 22.75 9.5V15.5C22.75 20.93 20.43 23.25 15 23.25ZM9 3.25C4.39 3.25 2.75 4.89 2.75 9.5V15.5C2.75 20.11 4.39 21.75 9 21.75H15C19.61 21.75 21.25 20.11 21.25 15.5V9.5C21.25 4.89 19.61 3.25 15 3.25H9Z" fill="#171717"/>
<path d="M12 13.5C11.44 13.5 11 13.05 11 12.5C11 11.95 11.45 11.5 12 11.5C12.55 11.5 13 11.95 13 12.5C13 13.05 12.56 13.5 12 13.5Z" fill="#171717"/>
<path d="M16 13.5C15.44 13.5 15 13.05 15 12.5C15 11.95 15.45 11.5 16 11.5C16.55 11.5 17 11.95 17 12.5C17 13.05 16.56 13.5 16 13.5Z" fill="#171717"/>
<path d="M8 13.5C7.44 13.5 7 13.05 7 12.5C7 11.95 7.45 11.5 8 11.5C8.55 11.5 9 11.95 9 12.5C9 13.05 8.56 13.5 8 13.5Z" fill="#171717"/>
</svg>
