<svg width="25" height="24" viewBox="0 0 25 24" fill="none" xmlns="http://www.w3.org/2000/svg">
    <path opacity="0.4" d="M16.9213 22.0001C14.1213 22.0001 11.8413 19.7301 11.8413 16.9201C11.8413 14.1201 14.1113 11.8401 16.9213 11.8401C19.7213 11.8401 22.0013 14.1101 22.0013 16.9201C22.0013 19.7301 19.7313 22.0001 16.9213 22.0001Z" fill="#FAAA40 "/>
    <path opacity="0.4" d="M5.02147 2H8.94147C11.0115 2 12.0115 2.99999 11.9615 5.01999V8.94C12.0115 11.01 11.0115 12.01 8.94147 11.96H5.02147C3.00147 12 2.00146 11 2.00146 8.92999V5.01001C2.00146 3.00001 3.00147 2 5.02147 2Z" fill="#FAAA40 "/>
    <path d="M9.01164 8.25992C8.70164 8.25992 8.41165 8.13991 8.14165 7.93991C8.39165 7.53991 8.57165 7.08991 8.66165 6.59991H9.00165C9.41165 6.59991 9.75165 6.25991 9.75165 5.84991C9.75165 5.43991 9.41165 5.09991 9.00165 5.09991H8.01164C8.00164 5.09991 7.99165 5.09991 7.99165 5.09991H7.97165H7.71165C7.67165 4.71991 7.36165 4.41992 6.97165 4.41992C6.58165 4.41992 6.27164 4.71991 6.23164 5.09991H4.94165C4.53165 5.09991 4.19165 5.43991 4.19165 5.84991C4.19165 6.25991 4.53165 6.59991 4.94165 6.59991H7.11165C6.81165 7.55991 5.95164 8.25992 4.93164 8.25992C4.52164 8.25992 4.18164 8.59992 4.18164 9.00992C4.18164 9.41992 4.52164 9.75992 4.93164 9.75992C5.74164 9.75992 6.49165 9.48992 7.11165 9.03992C7.66165 9.49992 8.32165 9.75992 9.00165 9.75992C9.41165 9.75992 9.75165 9.41992 9.75165 9.00992C9.75165 8.59992 9.42164 8.25992 9.01164 8.25992Z" fill="#FAAA40 "/>
    <path d="M9.00146 22.75C4.73146 22.75 1.25146 19.27 1.25146 15C1.25146 14.59 1.59146 14.25 2.00146 14.25C2.41146 14.25 2.75146 14.59 2.75146 15C2.75146 17.96 4.81147 20.44 7.58147 21.09L7.31146 20.64C7.10146 20.28 7.21147 19.82 7.57147 19.61C7.92147 19.4 8.39147 19.51 8.60147 19.87L9.65146 21.62C9.79146 21.85 9.79147 22.14 9.66147 22.37C9.52147 22.6 9.27147 22.75 9.00146 22.75Z" fill="#FAAA40 "/>
    <path d="M22.0014 9.75C21.5914 9.75 21.2514 9.41 21.2514 9C21.2514 6.04 19.1914 3.56 16.4214 2.91L16.6914 3.35999C16.9014 3.71999 16.7914 4.18001 16.4314 4.39001C16.0814 4.60001 15.6114 4.49001 15.4014 4.13L14.3514 2.38C14.2114 2.15 14.2114 1.86 14.3414 1.63C14.4714 1.39 14.7214 1.25 14.9914 1.25C19.2614 1.25 22.7414 4.73 22.7414 9C22.7514 9.41 22.4114 9.75 22.0014 9.75Z" fill="#FAAA40 "/>
    <path d="M19.7315 18.3301L17.5915 14.0601C17.4615 13.8101 17.2015 13.6401 16.9215 13.6401C16.6415 13.6401 16.3815 13.8001 16.2515 14.0501L14.1115 18.3201C13.9215 18.6901 14.0715 19.1401 14.4515 19.3301C14.5615 19.3801 14.6715 19.4101 14.7815 19.4101C15.0515 19.4101 15.3215 19.2601 15.4515 19.0001L15.6215 18.6601H18.2115L18.3815 19.0001C18.5715 19.3701 19.0215 19.5201 19.3915 19.3401C19.7715 19.1501 19.9215 18.7001 19.7315 18.3301ZM16.3815 17.1601L16.9315 16.0701L17.4815 17.1601H16.3815Z" fill="#FAAA40 "/>
</svg>
