<svg width="24" height="24" viewBox="0 0 24 24" fill="none" xmlns="http://www.w3.org/2000/svg">
<path d="M5.67431 8.92962C5.44149 8.63505 5.10584 8.43948 4.73476 8.3822C4.36369 8.32492 3.98469 8.41016 3.67388 8.62081V4.17312C3.67388 3.81647 3.5322 3.47443 3.28001 3.22224C3.02782 2.97005 2.68578 2.82837 2.32913 2.82837C1.97248 2.82837 1.63043 2.97005 1.37824 3.22224C1.12605 3.47443 0.984375 3.81647 0.984375 4.17312V10.6267C0.984943 11.1429 1.11216 11.6512 1.35487 12.1068L5.00438 18.9374V22.6874C5.00438 22.7745 5.03895 22.8579 5.10048 22.9195C5.16202 22.981 5.24548 23.0156 5.3325 23.0156C5.41952 23.0156 5.50298 22.981 5.56452 22.9195C5.62606 22.8579 5.66063 22.7745 5.66063 22.6874V18.8549C5.66061 18.8009 5.64735 18.7477 5.622 18.7001L1.93369 11.7976C1.74169 11.4372 1.64107 11.0351 1.64063 10.6267V4.17312C1.64063 3.99052 1.71316 3.81539 1.84228 3.68628C1.9714 3.55716 2.14652 3.48462 2.32913 3.48462C2.51173 3.48462 2.68685 3.55716 2.81597 3.68628C2.94509 3.81539 3.01763 3.99052 3.01763 4.17312C3.01763 4.17312 3.01763 9.84481 3.01763 9.84631C3.01485 10.1845 3.12823 10.5134 3.33881 10.778L5.46075 13.4592C5.51525 13.526 5.59381 13.5686 5.67945 13.5779C5.7651 13.5872 5.85098 13.5624 5.91853 13.509C5.98608 13.4555 6.02989 13.3776 6.0405 13.2921C6.05112 13.2066 6.02768 13.1204 5.97525 13.052L3.85331 10.3707C3.71736 10.1974 3.65562 9.97724 3.68161 9.75848C3.70761 9.53971 3.81921 9.34016 3.99201 9.2035C4.1648 9.06683 4.3847 9.0042 4.60357 9.0293C4.82244 9.0544 5.02245 9.1652 5.15981 9.33743L9.34463 14.6232C9.95307 15.394 10.2847 16.3471 10.2861 17.3291V22.6874C10.2861 22.7745 10.3206 22.8579 10.3822 22.9195C10.4437 22.981 10.5272 23.0156 10.6142 23.0156C10.7012 23.0156 10.7847 22.981 10.8462 22.9195C10.9077 22.8579 10.9423 22.7745 10.9423 22.6874V17.3291C10.9406 16.1994 10.5591 15.1032 9.85913 14.2166L5.67431 8.92962Z" fill="#fff" stroke="#fff" stroke-width="0.35"/>
<path d="M21.6708 2.82837C21.3143 2.82877 20.9725 2.97057 20.7204 3.22268C20.4683 3.47478 20.3265 3.81659 20.3261 4.17312V8.62081C20.0152 8.41016 19.6362 8.32492 19.2652 8.3822C18.8941 8.43948 18.5584 8.63505 18.3256 8.92962L14.1408 14.216C13.4408 15.1026 13.0593 16.1989 13.0576 17.3285V22.6874C13.0576 22.7745 13.0922 22.8579 13.1537 22.9195C13.2153 22.981 13.2987 23.0156 13.3857 23.0156C13.4728 23.0156 13.5562 22.981 13.6178 22.9195C13.6793 22.8579 13.7139 22.7745 13.7139 22.6874V17.3291C13.7153 16.3471 14.0469 15.394 14.6553 14.6232L18.8401 9.33743C18.908 9.25167 18.9921 9.18012 19.0877 9.12687C19.1832 9.07361 19.2883 9.0397 19.3969 9.02705C19.5056 9.01441 19.6156 9.0233 19.7209 9.0532C19.8261 9.08309 19.9244 9.13342 20.0101 9.20131C20.0959 9.26919 20.1674 9.3533 20.2207 9.44884C20.2739 9.54438 20.3079 9.64947 20.3205 9.75811C20.3331 9.86676 20.3243 9.97683 20.2944 10.082C20.2645 10.1873 20.2141 10.2855 20.1462 10.3713L18.0243 13.0512C17.9968 13.0849 17.9762 13.1238 17.9639 13.1655C17.9515 13.2072 17.9475 13.251 17.9522 13.2942C17.9569 13.3375 17.9702 13.3794 17.9912 13.4175C18.0123 13.4556 18.0407 13.4891 18.0748 13.5161C18.1089 13.5431 18.1481 13.5631 18.19 13.5748C18.2319 13.5865 18.2757 13.5898 18.3189 13.5844C18.362 13.5791 18.4037 13.5652 18.4415 13.5436C18.4792 13.5219 18.5123 13.493 18.5388 13.4585L20.6607 10.7772C20.8713 10.5126 20.9847 10.1837 20.9819 9.84556V4.17237C20.9819 3.98977 21.0545 3.81464 21.1836 3.68553C21.3127 3.55641 21.4878 3.48387 21.6704 3.48387C21.853 3.48387 22.0282 3.55641 22.1573 3.68553C22.2864 3.81464 22.3589 3.98977 22.3589 4.17237V10.6267C22.3585 11.0351 22.2578 11.4371 22.0657 11.7974L18.3779 18.7001C18.3526 18.7477 18.3393 18.8009 18.3393 18.8549V22.6874C18.3393 22.7745 18.3739 22.8579 18.4354 22.9195C18.4969 22.981 18.5804 23.0156 18.6674 23.0156C18.7545 23.0156 18.8379 22.981 18.8995 22.9195C18.961 22.8579 18.9956 22.7745 18.9956 22.6874V18.9374L22.6451 12.107C22.8878 11.6514 23.015 11.1433 23.0156 10.6271V4.17312C23.0152 3.81659 22.8734 3.47478 22.6212 3.22268C22.3691 2.97057 22.0273 2.82877 21.6708 2.82837Z" fill="#fff" stroke="#fff" stroke-width="0.35"/>
<path d="M15.726 9.66732C16.1535 8.80313 16.0232 7.70325 15.3688 6.64857C14.5714 5.36513 13.2176 4.50244 12 4.50244C10.7824 4.50244 9.42865 5.36494 8.63121 6.64932C7.97684 7.70325 7.84652 8.80313 8.27402 9.66807C8.77671 10.6838 9.79577 11.1201 11.1411 10.8949C11.7097 10.7993 12.2903 10.7993 12.859 10.8949C13.0783 10.9322 13.3003 10.9514 13.5227 10.9523C14.5399 10.9517 15.3098 10.5084 15.726 9.66732ZM12 10.1664C11.6761 10.1665 11.3528 10.1934 11.0333 10.2467C9.96659 10.425 9.23627 10.1316 8.8624 9.37613C8.53784 8.71988 8.65615 7.85232 9.18902 6.99488C9.86046 5.91338 11.0166 5.15738 12.0002 5.15738C12.9838 5.15738 14.14 5.91263 14.8114 6.99488C15.3435 7.85175 15.4626 8.71988 15.138 9.37613C14.7641 10.1316 14.035 10.4243 12.9671 10.2469C12.6475 10.1934 12.3241 10.1665 12 10.1664Z" fill="#fff" stroke="#fff" stroke-width="0.35"/>
<path d="M10.3853 4.27087C11.1551 4.27087 11.7816 3.53381 11.7816 2.62781C11.7816 1.72181 11.1561 0.984375 10.3853 0.984375C9.61446 0.984375 8.98877 1.72163 8.98877 2.62781C8.98877 3.534 9.61521 4.27087 10.3853 4.27087ZM10.3853 1.64062C10.7933 1.64062 11.1253 2.08331 11.1253 2.62781C11.1253 3.17231 10.7933 3.61462 10.3853 3.61462C9.97727 3.61462 9.64502 3.17194 9.64502 2.62781C9.64502 2.08369 9.97708 1.64062 10.3853 1.64062Z" fill="#fff" stroke="#fff" stroke-width="0.35"/>
<path d="M13.6143 4.27087C14.3844 4.27087 15.0108 3.53381 15.0108 2.62781C15.0108 1.72181 14.3844 0.984375 13.6143 0.984375C12.8443 0.984375 12.218 1.72163 12.218 2.62781C12.218 3.534 12.8445 4.27087 13.6143 4.27087ZM13.6143 1.64062C14.0225 1.64062 14.3546 2.08331 14.3546 2.62781C14.3546 3.17231 14.0225 3.61462 13.6143 3.61462C13.2061 3.61462 12.8743 3.17194 12.8743 2.62781C12.8743 2.08369 13.2063 1.64062 13.6143 1.64062Z" fill="#fff" stroke="#fff" stroke-width="0.35"/>
<path d="M7.78627 6.07507C8.47589 6.07507 9.03689 5.41882 9.03689 4.61126C9.03689 3.80369 8.47514 3.14819 7.78627 3.14819C7.09739 3.14819 6.53564 3.80444 6.53564 4.61201C6.53564 5.41957 7.09683 6.07507 7.78627 6.07507ZM7.78627 3.80369C8.10858 3.80369 8.38064 4.17363 8.38064 4.61126C8.38064 5.04888 8.10858 5.41882 7.78627 5.41882C7.46396 5.41882 7.19189 5.04907 7.19189 4.61126C7.19189 4.17344 7.46414 3.80444 7.78627 3.80444V3.80369Z" fill="#fff" stroke="#fff" stroke-width="0.35"/>
<path d="M16.2138 6.07484C16.9032 6.07484 17.4644 5.41859 17.4644 4.61103C17.4644 3.80347 16.9032 3.14722 16.2138 3.14722C15.5243 3.14722 14.9631 3.80347 14.9631 4.61103C14.9631 5.41859 15.5249 6.07484 16.2138 6.07484ZM16.2138 3.80347C16.5359 3.80347 16.8081 4.1734 16.8081 4.61103C16.8081 5.04865 16.5359 5.41859 16.2138 5.41859C15.8916 5.41859 15.6186 5.04959 15.6186 4.61234C15.6186 4.17509 15.8914 3.80347 16.2138 3.80347Z" fill="#fff" stroke="#fff" stroke-width="0.35"/>
</svg>
