<svg width="24" height="24" viewBox="0 0 24 24" fill="none" xmlns="http://www.w3.org/2000/svg">
<path d="M15.4735 7.63242C13.1395 4.19858 10.0221 2.37352 8.38958 3.49176C8.20981 3.61836 8.05361 3.77546 7.92804 3.95594C7.92804 3.96913 4.1487 11.6175 4.1487 11.6175L2.03881 13.0469C1.71491 13.2668 1.4375 13.5483 1.22244 13.8754C1.00737 14.2025 0.858859 14.5688 0.785384 14.9533C0.711909 15.3379 0.714911 15.7331 0.79422 16.1165C0.873528 16.4998 1.02759 16.8638 1.2476 17.1876L1.34254 17.3274C1.78726 17.9752 2.46944 18.4216 3.24113 18.5697C4.01281 18.7178 4.81178 18.5557 5.46474 18.1186L8.85375 23.1111C9.35221 23.7256 10.3096 24.3375 11.4911 23.6175C11.7004 23.4818 11.879 23.3037 12.0153 23.0947C12.1515 22.8858 12.2425 22.6506 12.2823 22.4043C12.3301 22.1593 12.3288 21.9074 12.2785 21.6629C12.2283 21.4184 12.1301 21.1864 11.9896 20.9801L9.00408 16.5757C9.00408 16.5757 16.0617 16.014 16.088 16.0034C16.3084 15.9573 16.5173 15.8676 16.7025 15.7397C17.5412 15.17 17.8419 13.9753 17.5518 12.3744C17.2907 10.9001 16.5496 9.23067 15.4735 7.63242ZM2.11002 16.8078L2.01507 16.668C1.86328 16.4446 1.75704 16.1933 1.70246 15.9288C1.64787 15.6642 1.646 15.3914 1.69695 15.1261C1.74791 14.8608 1.85069 14.6082 1.9994 14.3826C2.14812 14.1571 2.33986 13.9631 2.56364 13.8118L4.38606 12.5722L6.79134 16.1142L4.96892 17.3537C4.74539 17.5057 4.49411 17.6122 4.22942 17.667C3.96473 17.7218 3.69184 17.724 3.42633 17.6733C3.16082 17.6226 2.90791 17.52 2.68205 17.3715C2.45619 17.223 2.26181 17.0315 2.11002 16.8078ZM11.23 21.4997C11.3742 21.7142 11.4273 21.9771 11.3779 22.2307C11.3285 22.4843 11.1804 22.708 10.9663 22.8526C10.7514 22.9969 10.4881 23.0502 10.234 23.0007C9.97994 22.9513 9.7558 22.8032 9.61068 22.5889L6.23221 17.6122L7.59046 16.6891L7.94914 16.6601L11.23 21.4997ZM7.6643 15.7555L5.04276 11.8944L7.54298 6.79638C7.78562 8.22847 8.49507 9.92957 9.62914 11.599C10.7632 13.2685 12.0819 14.5555 13.3214 15.3098L7.6643 15.7555ZM15.4445 15.141C14.1839 15.0592 12.132 13.6377 10.394 11.0768C8.65595 8.51594 8.09156 6.0922 8.47925 4.88693C8.54926 4.66069 8.68897 4.46237 8.87843 4.32027C9.06789 4.17818 9.2974 4.09959 9.53419 4.09572C10.7843 4.09572 12.9127 5.52517 14.7008 8.1599C15.7083 9.64209 16.4414 11.1929 16.6419 12.5485C17.0349 15.141 15.4445 15.141 15.4445 15.141Z" fill="#fff" stroke="#fff" stroke-width="0.25"/>
<path d="M12.1769 7.73001C11.8538 7.66657 11.5214 7.66818 11.1989 7.73475C10.8765 7.80131 10.5706 7.9315 10.2991 8.1177C10.249 8.15233 10.2063 8.19649 10.1733 8.24764C10.1403 8.29879 10.1178 8.35593 10.1069 8.41581C10.096 8.47569 10.097 8.53713 10.1098 8.59662C10.1227 8.65611 10.1471 8.71249 10.1817 8.76253C10.2164 8.81258 10.2605 8.85532 10.3117 8.8883C10.3628 8.92128 10.42 8.94387 10.4798 8.95477C10.5397 8.96566 10.6012 8.96466 10.6606 8.95181C10.7201 8.93897 10.7765 8.91453 10.8266 8.8799C10.9985 8.76318 11.1918 8.68147 11.3953 8.63945C11.5989 8.59742 11.8087 8.59589 12.0128 8.63496C12.2169 8.67402 12.4114 8.7529 12.585 8.86711C12.7586 8.98131 12.9081 9.1286 13.0248 9.30056C13.1415 9.47252 13.2232 9.66578 13.2652 9.86932C13.3073 10.0729 13.3088 10.2827 13.2697 10.4868C13.2307 10.6909 13.1518 10.8854 13.0376 11.059C12.9234 11.2326 12.7761 11.3821 12.6041 11.4988C12.5231 11.5548 12.462 11.6353 12.43 11.7284C12.3979 11.8216 12.3965 11.9226 12.426 12.0166C12.4555 12.1107 12.5143 12.1928 12.5938 12.251C12.6733 12.3092 12.7693 12.3404 12.8679 12.3401C12.9619 12.3419 13.0541 12.3142 13.1316 12.261C13.5418 11.9831 13.8603 11.5897 14.0468 11.1307C14.2332 10.6716 14.2792 10.1676 14.179 9.68235C14.0787 9.19712 13.8367 8.75258 13.4836 8.40502C13.1304 8.05747 12.6821 7.82254 12.1954 7.73001H12.1769Z" fill="#fff" stroke="#fff" stroke-width="0.25"/>
<path d="M16.0433 4.42278H16.0881C16.2022 4.42273 16.3123 4.38038 16.3971 4.30391C16.4818 4.22744 16.5353 4.12227 16.547 4.00871L16.903 0.548495C16.9111 0.487309 16.9069 0.42512 16.8905 0.365606C16.8742 0.306092 16.8461 0.250463 16.8078 0.20201C16.7696 0.153557 16.722 0.113265 16.6679 0.0835164C16.6139 0.053768 16.5544 0.0351681 16.493 0.0288172C16.4316 0.0224662 16.3695 0.0284933 16.3105 0.0465417C16.2515 0.0645902 16.1967 0.0942934 16.1494 0.133894C16.102 0.173495 16.0631 0.222188 16.0349 0.277094C16.0067 0.331999 15.9898 0.392001 15.9852 0.45355L15.6318 3.91641C15.6193 4.03811 15.6556 4.1598 15.7327 4.25475C15.8099 4.34971 15.9216 4.41014 16.0433 4.42278Z" fill="#fff"/>
<path d="M22.0088 3.71075C21.9411 3.6086 21.8357 3.53741 21.7156 3.5127C21.5955 3.48799 21.4706 3.51179 21.368 3.57889L18.153 5.68878C18.0695 5.7439 18.0062 5.82465 17.9726 5.91888C17.939 6.0131 17.9369 6.11569 17.9667 6.2112C17.9964 6.30671 18.0564 6.38997 18.1376 6.44844C18.2188 6.5069 18.3167 6.53741 18.4168 6.53537C18.5101 6.53752 18.6019 6.51181 18.6805 6.46152L21.8954 4.35163C21.9952 4.28146 22.0631 4.17467 22.0843 4.05459C22.1056 3.9345 22.0784 3.81089 22.0088 3.71075Z" fill="#fff"/>
<path d="M22.9928 9.34412L19.253 8.6716C19.1323 8.64991 19.008 8.67705 18.9073 8.74704C18.8067 8.81702 18.738 8.92412 18.7163 9.04478C18.6946 9.16544 18.7217 9.28977 18.7917 9.39042C18.8617 9.49108 18.9688 9.5598 19.0895 9.58149L22.8266 10.254H22.9084C23.026 10.2575 23.1404 10.2159 23.2284 10.1377C23.3163 10.0596 23.3711 9.95081 23.3816 9.83362C23.392 9.71644 23.3573 9.5997 23.2845 9.50724C23.2118 9.41479 23.1065 9.35362 22.9901 9.33621L22.9928 9.34412Z" fill="#fff"/>
</svg>
