<svg width="24" height="24" viewBox="0 0 24 24" fill="none" xmlns="http://www.w3.org/2000/svg">
<path d="M17.7473 13.6403C16.1325 11.6907 14.0915 10.6169 12 10.6169C9.90855 10.6169 7.86747 11.6907 6.25281 13.6403C4.80137 15.3927 3.93494 17.6013 3.93494 19.5482C3.93494 20.4939 4.22406 21.2143 4.79425 21.6894C5.35703 22.1583 6.10005 22.3169 6.92898 22.3169C7.81103 22.3169 8.79044 22.1373 9.75273 21.9607C10.5936 21.8065 11.3879 21.6608 12.0001 21.6608C12.5284 21.6608 13.2734 21.7991 14.062 21.9455C15.905 22.2876 17.9939 22.6754 19.2006 21.6721C19.7743 21.1951 20.0651 20.4805 20.0651 19.5482C20.0652 17.6013 19.1987 15.3927 17.7473 13.6403ZM18.3016 20.5908C17.602 21.1724 15.7815 20.8344 14.3186 20.5629C13.4645 20.4043 12.6578 20.2545 12 20.2545C11.2599 20.2545 10.4045 20.4115 9.49891 20.5776C8.09589 20.8349 6.3498 21.1553 5.6943 20.6091C5.60692 20.5363 5.34105 20.3147 5.34105 19.5481C5.34105 17.9428 6.10539 16.0228 7.33572 14.5372C8.67845 12.916 10.3349 12.0231 11.9999 12.0231C13.6649 12.0231 15.3214 12.916 16.6641 14.5372C17.8945 16.0228 18.6588 17.9428 18.6588 19.5481C18.6589 20.2937 18.39 20.5173 18.3016 20.5908Z" fill="#fff"/>
<path d="M17.9123 3.05368C17.3215 2.18261 16.4755 1.68311 15.5912 1.68311C14.7069 1.68311 13.8609 2.1827 13.2701 3.05368C12.7274 3.85389 12.4285 4.90473 12.4285 6.01267C12.4285 7.12061 12.7273 8.17145 13.2701 8.97165C13.8609 9.84268 14.7069 10.3423 15.5912 10.3423C16.4756 10.3423 17.3215 9.84268 17.9123 8.97165C18.455 8.17145 18.754 7.12061 18.754 6.01267C18.754 4.90473 18.4551 3.85384 17.9123 3.05368ZM16.7486 8.18232C16.5576 8.46381 16.1534 8.93607 15.5912 8.93607C15.029 8.93607 14.6248 8.46386 14.4339 8.18232C14.0531 7.62086 13.8347 6.83003 13.8347 6.01267C13.8347 5.19526 14.0531 4.40448 14.4339 3.84301C14.6248 3.56153 15.029 3.08926 15.5912 3.08926C16.1534 3.08926 16.5576 3.56148 16.7486 3.84301C17.1294 4.40448 17.3478 5.19531 17.3478 6.01267C17.3477 6.83003 17.1294 7.62086 16.7486 8.18232Z" fill="#fff"/>
<path d="M10.73 3.05373C10.1391 2.18265 9.29319 1.68311 8.40884 1.68311C7.5245 1.68311 6.6785 2.1827 6.08773 3.05373C5.54502 3.85393 5.24609 4.90478 5.24609 6.01272C5.24609 7.12065 5.54497 8.1715 6.08773 8.9717C6.67855 9.84278 7.5245 10.3424 8.40884 10.3424C9.29319 10.3424 10.1391 9.84278 10.73 8.9717C11.2727 8.1715 11.5716 7.1207 11.5716 6.01272C11.5715 4.90478 11.2727 3.85389 10.73 3.05373ZM9.56609 8.18242C9.37517 8.4639 8.97092 8.93617 8.4088 8.93617C7.84662 8.93617 7.44238 8.4639 7.25145 8.18242C6.87064 7.62095 6.65225 6.83012 6.65225 6.01276C6.65225 5.19536 6.87069 4.40457 7.25145 3.84311C7.44238 3.56162 7.84662 3.08936 8.4088 3.08936C8.97097 3.08936 9.37517 3.56157 9.56609 3.84311C9.94691 4.40457 10.1653 5.1954 10.1653 6.01276C10.1653 6.83012 9.94691 7.62095 9.56609 8.18242Z" fill="#fff"/>
<path d="M23.8602 9.84995C23.6221 9.03976 23.1115 8.45106 22.4228 8.19235C21.8686 7.98418 21.2429 8.01948 20.6611 8.29178C19.8593 8.66696 19.2039 9.44171 18.8632 10.4173C18.5847 11.2146 18.5499 12.0572 18.7654 12.7902C19.0036 13.6004 19.5141 14.1891 20.2029 14.4478C20.4413 14.5374 20.6927 14.5818 20.9483 14.5818C21.2871 14.5818 21.633 14.5036 21.9647 14.3484C22.7664 13.9732 23.4218 13.1985 23.7626 12.2229V12.2229C24.041 11.4257 24.0758 10.5829 23.8602 9.84995ZM22.435 11.7591C22.2214 12.3704 21.8228 12.8622 21.3686 13.0748C21.2016 13.1529 20.9496 13.2261 20.6973 13.1314C20.0885 12.9027 19.8517 11.8511 20.1906 10.8811C20.4042 10.2698 20.8029 9.77795 21.2571 9.56537C21.3678 9.51357 21.5158 9.46393 21.6765 9.46393C21.7583 9.46393 21.8433 9.47678 21.9283 9.5087C22.5371 9.73745 22.7739 10.789 22.435 11.7591Z" fill="#fff"/>
<path d="M5.13686 10.4173C4.79603 9.44165 4.14067 8.66694 3.33892 8.29176C2.75706 8.01946 2.13137 7.98421 1.57717 8.19233C0.888387 8.45108 0.377871 9.03979 0.1397 9.84993C-0.0757848 10.5829 -0.0410504 11.4256 0.237434 12.2228V12.2229C0.578309 13.1985 1.23362 13.9732 2.03537 14.3484C2.36706 14.5036 2.71295 14.5818 3.05171 14.5818C3.30728 14.5818 3.55881 14.5373 3.79712 14.4478C4.486 14.1891 4.99646 13.6003 5.23464 12.7902C5.45003 12.0573 5.41529 11.2146 5.13686 10.4173ZM3.30259 13.1314C3.05036 13.2261 2.79836 13.1529 2.63139 13.0748C2.17722 12.8623 1.7785 12.3704 1.56498 11.7591V11.7592C1.22612 10.7891 1.46289 9.73757 2.0717 9.50882C2.32389 9.41408 2.57593 9.48735 2.74295 9.56544C3.19717 9.77802 3.59584 10.2698 3.80936 10.8811C4.14821 11.8512 3.9114 12.9027 3.30259 13.1314Z" fill="#fff"/>
</svg>
