<svg width="24" height="24" viewBox="0 0 24 24" fill="none" xmlns="http://www.w3.org/2000/svg">
<g clip-path="url(#clip0_565_26645)">
<path d="M17.9393 8.49141C18.1069 8.32383 18.3793 8.32383 18.5468 8.49141C18.7149 8.65941 18.7149 8.93141 18.5468 9.09899C18.3793 9.26699 18.1068 9.26699 17.9393 9.09899C17.7713 8.93141 17.7713 8.65941 17.9393 8.49141Z" fill="#8C8C8C"/>
<path d="M12.1203 20.238C11.9309 19.9813 11.8285 19.6722 11.8285 19.3471C11.8285 18.5179 12.5031 17.8433 13.3324 17.8433H20.6368C21.0387 17.8433 21.4163 17.9997 21.7002 18.2836C21.9843 18.5676 22.1407 18.9452 22.1407 19.3471C22.1407 19.6801 22.0317 19.988 21.8478 20.2374C22.532 20.5972 23 21.3148 23 22.14V22.5697C23 22.807 22.8076 22.9994 22.5703 22.9994H11.3988C11.1616 22.9994 10.9692 22.807 10.9692 22.5697V22.14C10.9692 21.3151 11.4367 20.5979 12.1203 20.238ZM21.0926 18.8912C20.971 18.7695 20.8091 18.7026 20.6368 18.7026H13.3324C12.977 18.7026 12.6879 18.9917 12.6879 19.347C12.6879 19.5193 12.7549 19.6812 12.8766 19.8029C12.9982 19.9246 13.1601 19.9916 13.3324 19.9916H20.6368C20.9922 19.9916 21.2813 19.7024 21.2813 19.3471C21.2813 19.1748 21.2143 19.0129 21.0926 18.8912ZM22.1407 22.14C22.1407 21.4292 21.5624 20.851 20.8516 20.851H20.6368H13.3324H13.1175C12.4068 20.851 11.8285 21.4292 11.8285 22.14H22.1407Z" fill="#8C8C8C"/>
<path d="M1.3998 19.0522C1.54572 18.826 1.71983 18.6261 1.91735 18.4578L3.92507 16.7067C3.94071 16.6832 3.95885 16.6608 3.9796 16.6401C4.01449 16.6052 4.05402 16.578 4.09605 16.5576L5.31021 15.4987L10.9301 10.5963C10.7001 10.3558 10.5734 10.0413 10.5734 9.7069C10.5734 9.36238 10.7075 9.03861 10.9513 8.79489C11.0576 8.68871 11.1784 8.60523 11.3075 8.54408L10.7876 8.02416C10.6423 8.06279 10.4929 8.08255 10.3435 8.08255C9.90345 8.08251 9.46337 7.91502 9.12838 7.58003C8.80363 7.25532 8.62479 6.8237 8.62479 6.36466C8.62479 5.90562 8.80363 5.474 9.12834 5.14929L12.7742 1.50355C13.0989 1.17884 13.5305 1 13.9897 1C14.4487 1 14.8802 1.17884 15.2049 1.50355C15.6536 1.95232 15.8014 2.5895 15.649 3.16279L20.8364 8.35016C20.9797 8.31205 21.1289 8.29194 21.2813 8.29194C21.7405 8.29194 22.172 8.47065 22.4964 8.79506C23.1666 9.4652 23.1666 10.5556 22.4964 11.2258L18.8506 14.8716C18.5155 15.2067 18.0754 15.3742 17.6353 15.3742C17.1951 15.3742 16.755 15.2067 16.4199 14.8716C15.9711 14.4228 15.8234 13.7857 15.9757 13.2124L15.4569 12.6935C15.3945 12.8237 15.3099 12.9438 15.2048 13.0489C14.9614 13.2924 14.6377 13.4265 14.2932 13.4265C13.9592 13.4265 13.6448 13.3 13.404 13.0702L7.41814 19.9475C7.40164 19.9733 7.38239 19.9979 7.35987 20.0204C7.35218 20.0281 7.34402 20.0351 7.3359 20.042L5.55222 22.0914C5.50787 22.1437 5.46048 22.1952 5.41128 22.2444C4.92139 22.7341 4.27432 22.9999 3.59499 22.9999C3.47523 22.9999 3.35436 22.9916 3.23332 22.9749C2.42426 22.8629 1.72503 22.3789 1.31502 21.6468C0.865864 20.8444 0.899294 19.8258 1.3998 19.0522ZM14.5972 2.11122C14.4348 1.94884 14.219 1.85938 13.9897 1.85938C13.76 1.85938 13.5441 1.94884 13.3818 2.11122L9.73596 5.75699C9.57358 5.91937 9.48417 6.13521 9.48417 6.3647C9.48417 6.5942 9.57358 6.81003 9.736 6.97241C10.0709 7.30744 10.616 7.30744 10.951 6.97241L14.5969 3.32646C14.597 3.32638 14.5971 3.32633 14.5972 3.32625C14.9322 2.99126 14.9322 2.4462 14.5972 2.11122ZM17.0275 14.264C17.3626 14.599 17.9079 14.5991 18.243 14.264L21.8888 10.6182C22.2239 10.2831 22.2239 9.73788 21.8888 9.40273C21.7267 9.24061 21.5109 9.15132 21.2813 9.15132C21.0517 9.15132 20.836 9.24056 20.674 9.40256L17.0276 13.049C16.6925 13.3839 16.6925 13.929 17.0275 14.264ZM15.2184 11.2398L16.4199 12.4413L20.0661 8.79515L15.2049 3.93387L11.5587 7.58003L12.7624 8.78372C12.7663 8.78741 12.7701 8.79102 12.7742 8.7951L15.2036 11.2245C15.2086 11.2295 15.2135 11.2346 15.2184 11.2398ZM13.6842 12.1362C13.6851 12.137 13.6859 12.1379 13.6867 12.1387L13.9893 12.4413C14.0705 12.5224 14.1784 12.5671 14.2933 12.5671C14.4081 12.5671 14.5161 12.5224 14.5972 12.4413C14.6785 12.3601 14.7232 12.252 14.7232 12.1371C14.7232 12.0246 14.6803 11.9188 14.6024 11.8389L12.1617 9.39826C11.9944 9.23558 11.724 9.2376 11.5587 9.40273C11.4774 9.48394 11.4327 9.59196 11.4327 9.7069C11.4327 9.82176 11.4773 9.92948 11.5587 10.0107L11.8595 10.3115C11.8616 10.3135 11.8637 10.3156 11.8657 10.3176L13.6842 12.1362ZM12.7944 12.4617L11.5386 11.2059L6.22154 15.8437L8.16176 17.784L12.7944 12.4617ZM7.59624 18.4337L5.57245 16.4099L4.92332 16.9761L7.03073 19.0836L7.59624 18.4337ZM2.06478 21.227C2.3421 21.7221 2.81093 22.0489 3.3511 22.1237C3.89001 22.1982 4.41952 22.0207 4.80374 21.6367C4.83679 21.6037 4.86841 21.5693 4.89789 21.5344C4.89926 21.5327 4.90064 21.5311 4.90206 21.5295L6.46526 19.7333L4.27424 17.5423L2.48029 19.1071C2.47896 19.1083 2.47758 19.1094 2.47616 19.1106C2.34189 19.2248 2.22273 19.3619 2.12163 19.5186C1.7967 20.0207 1.77392 20.7073 2.06478 21.227Z" fill="#8C8C8C"/>
<path d="M14.9014 5.45299C15.0693 5.2852 15.3412 5.2852 15.5091 5.45299L17.3322 7.27607C17.5 7.44387 17.5 7.71595 17.3322 7.8837C17.2482 7.96762 17.1383 8.00955 17.0283 8.00955C16.9184 8.00955 16.8084 7.96757 16.7245 7.8837L14.9014 6.06062C14.7336 5.89287 14.7336 5.62083 14.9014 5.45299Z" fill="#8C8C8C"/>
</g>
<defs>
<clipPath id="clip0_565_26645">
<rect width="22" height="22" fill="white" transform="matrix(-1 0 0 1 23 1)"/>
</clipPath>
</defs>
</svg>
