<svg width="24" height="24" viewBox="0 0 24 24" fill="none" xmlns="http://www.w3.org/2000/svg">
<g clip-path="url(#clip0_328_1425)">
<path d="M14.8027 0.934326H11.9998V2.68614H13.9268V5.98539C13.9268 8.8832 11.5691 11.2409 8.67131 11.2409C5.7735 11.2409 3.41588 8.88325 3.41588 5.98544V2.68614H5.2845V0.934326H2.53997C2.05617 0.934326 1.66406 1.32644 1.66406 1.81023V5.98544C1.66406 9.84939 4.80741 12.9927 8.67136 12.9927C12.5353 12.9927 15.6787 9.84939 15.6787 5.98544V1.81023C15.6787 1.32644 15.2865 0.934326 14.8027 0.934326Z" fill="#fff"/>
<path d="M18.2189 13.7226V17.8686C18.2189 20.2835 16.2542 22.2482 13.8393 22.2482C11.4244 22.2482 9.4597 20.2835 9.4597 17.8686V12.146H7.70789V17.8686C7.70789 21.2494 10.4582 24 13.8393 24C17.22 24 19.9707 21.2494 19.9707 17.8686V13.7226H18.2189Z" fill="#fff"/>
<path d="M19.0951 8.05835C17.3076 8.05835 15.8539 9.51208 15.8539 11.2992C15.8539 13.0861 17.3076 14.5401 19.0948 14.5401C20.8819 14.5401 22.3357 13.0861 22.3359 11.2992C22.3359 9.51208 20.8819 8.05835 19.0951 8.05835ZM19.0948 12.7883C18.2735 12.7883 17.6054 12.1203 17.6054 11.2993C17.6054 10.4783 18.2734 9.81026 19.0948 9.81026C19.9158 9.81026 20.5838 10.4783 20.5838 11.2993C20.5838 12.1203 19.9158 12.7883 19.0948 12.7883Z" fill="#fff"/>
<path d="M5.2553 0C4.7715 0 4.37939 0.392109 4.37939 0.875906V2.74453C4.37939 3.22833 4.7715 3.62044 5.2553 3.62044C5.7391 3.62044 6.13121 3.22833 6.13121 2.74453V0.875906C6.13121 0.392109 5.7391 0 5.2553 0Z" fill="#fff"/>
<path d="M12.0291 0C11.5453 0 11.1532 0.392109 11.1532 0.875906V2.74453C11.1532 3.22833 11.5453 3.62044 12.0291 3.62044C12.5129 3.62044 12.905 3.22833 12.905 2.74453V0.875906C12.905 0.392109 12.5129 0 12.0291 0Z" fill="#fff"/>
</g>
<defs>
<clipPath id="clip0_328_1425">
<rect width="24" height="24" fill="white"/>
</clipPath>
</defs>
</svg>
