<svg width="24" height="24" viewBox="0 0 24 24" fill="none" xmlns="http://www.w3.org/2000/svg">
<path d="M23.971 13.3789C23.7936 12.1502 22.8284 11.185 21.5997 11.0076V10.2804C21.5997 8.27407 20.0745 6.6405 18.1997 6.6405C16.379 6.6405 14.8546 8.22448 14.7998 10.1716H14.823L14.7998 10.1756V18.0583C14.7998 20.5783 12.9158 22.6247 10.5998 22.6247C8.28388 22.6247 6.39991 20.5755 6.39991 18.0583V17.3755C6.9799 17.3755 7.59989 16.9551 7.59989 15.7756V14.7696C10.1671 14.1132 11.9998 11.9088 11.9998 9.40966V8.57567H11.1998L11.183 3.36975C11.1772 2.40611 10.4857 1.58332 9.53746 1.41177C9.33291 0.785134 8.65907 0.442939 8.03238 0.647536C7.40574 0.852083 7.06355 1.52592 7.26814 2.15261C7.47269 2.77925 8.14653 3.12145 8.77322 2.91685C9.10877 2.8073 9.37861 2.55486 9.51026 2.22736C10.0227 2.37316 10.3777 2.83935 10.3818 3.37215L10.3998 8.57567H9.59986V9.42126C9.56796 10.8126 8.63517 12.0217 7.29749 12.4056C6.58175 12.6327 5.81327 12.6327 5.09753 12.4056C3.7614 12.0204 2.83071 10.8115 2.79996 9.42126V8.57567H1.59998V3.37575C1.60228 2.8351 1.96587 2.36271 2.48796 2.22216C2.73141 2.8419 3.43115 3.1469 4.05089 2.90345C4.67063 2.66001 4.97563 1.96022 4.73218 1.34053C4.48873 0.720835 3.78895 0.415789 3.16925 0.659236C2.83346 0.791184 2.57436 1.06653 2.46316 1.40977C1.50453 1.57357 0.802638 2.40321 0.799988 3.37575V8.57567H0V9.40766C0 11.9096 1.83397 14.1148 4.39994 14.7696V15.7756C4.39994 16.9551 5.01993 17.3755 5.59992 17.3755V18.0583C5.59992 21.0183 7.84269 23.4247 10.5998 23.4247C13.357 23.4247 15.5998 21.0155 15.5998 18.0583V10.1948C15.6398 8.67687 16.807 7.44169 18.1997 7.44169C19.6333 7.44169 20.7997 8.71527 20.7997 10.2816V11.0076C19.2692 11.2285 18.2075 12.6484 18.4284 14.1789C18.6493 15.7094 20.0692 16.7711 21.5997 16.5502C23.1302 16.3293 24.1918 14.9094 23.971 13.3789ZM8.39988 2.17576C8.17898 2.17576 7.99988 1.99667 7.99988 1.77577C7.99988 1.55487 8.17898 1.37578 8.39988 1.37578C8.62078 1.37578 8.79987 1.55487 8.79987 1.77577C8.79987 1.99667 8.62078 2.17576 8.39988 2.17576ZM3.59995 1.37578C3.82084 1.37578 3.99994 1.55487 3.99994 1.77577C3.99994 1.99667 3.82084 2.17576 3.59995 2.17576C3.37905 2.17576 3.19995 1.99667 3.19995 1.77577C3.19995 1.55487 3.37905 1.37578 3.59995 1.37578ZM0.799988 9.40766V9.37566H1.99997V9.42126C2.02997 11.1598 3.1866 12.677 4.85513 13.1664C5.72947 13.4432 6.66795 13.4432 7.54229 13.1664C9.21162 12.6777 10.3693 11.1604 10.3998 9.42126V9.37566H11.1998V9.40766C11.1998 11.6328 9.48466 13.5908 7.1199 14.0644C6.5646 14.1756 5.99581 14.2035 5.43232 14.1472C5.24682 14.1292 5.06243 14.1013 4.87993 14.0636C2.51516 13.5908 0.799988 11.6328 0.799988 9.40766ZM5.59992 16.5756C5.23992 16.5756 5.19992 16.0156 5.19992 15.7756V14.9268C5.23192 14.9308 5.26472 14.9324 5.29712 14.9356C5.33712 14.94 5.37712 14.9432 5.41712 14.9468C5.60632 14.9636 5.79712 14.9748 5.98951 14.9752H6.00951C6.20151 14.9752 6.39191 14.9636 6.57991 14.9468C6.6199 14.9432 6.6623 14.94 6.7035 14.9356C6.7351 14.932 6.7679 14.9308 6.7995 14.9268V15.7756C6.7995 16.0156 6.7595 16.5756 6.39951 16.5756H5.59992ZM21.1997 15.7756C20.0952 15.7756 19.1997 14.8801 19.1997 13.7756C19.1997 12.6711 20.0952 11.7756 21.1997 11.7756C22.3042 11.7756 23.1997 12.6711 23.1997 13.7756C23.1984 14.8796 22.3037 15.7743 21.1997 15.7756Z" fill="#fff"/>
</svg>
