<svg width="24" height="24" viewBox="0 0 24 24" fill="none" xmlns="http://www.w3.org/2000/svg">
<g clip-path="url(#clip0_331_1932)">
<path d="M23.9991 6.33087C23.9985 6.31604 23.9982 6.30139 23.9967 6.28638C23.9958 6.27502 23.994 6.26367 23.9925 6.25232C23.9908 6.24115 23.9894 6.22998 23.9874 6.21881C23.9844 6.20398 23.981 6.1897 23.9771 6.17523C23.9756 6.16901 23.9747 6.16296 23.9729 6.15674L22.9839 2.69531C22.6121 1.39417 21.2609 0.375 19.9078 0.375H4.09222C2.73907 0.375 1.38794 1.39417 1.01605 2.69531L0.0270996 6.15674C0.0252685 6.16296 0.024353 6.16919 0.0227051 6.17523C0.019043 6.1897 0.0153809 6.20398 0.0126343 6.21863C0.010437 6.23016 0.00897216 6.24152 0.00750731 6.25287C0.00604247 6.26385 0.00421143 6.27502 0.00311279 6.28619C0.00183105 6.30139 0.00128174 6.31641 0.000915525 6.33142C0.000732422 6.33765 0 6.34369 0 6.34991V6.36639V6.36658V8.60925C0 9.71375 0.60791 10.6783 1.50641 11.1877V21.0359C1.50641 22.4617 2.66638 23.6219 4.09222 23.6219H19.9078C21.3336 23.6219 22.4938 22.4617 22.4938 21.0359V11.1877C23.3921 10.6782 24 9.71375 24 8.60925V6.34991C24 6.34351 23.9993 6.33728 23.9991 6.33087ZM2.36829 3.08167C2.56622 2.38898 3.3717 1.78125 4.09222 1.78125H19.9078C20.6281 1.78125 21.4338 2.38898 21.6317 3.08167L22.3647 5.64679H1.63531L2.36829 3.08167ZM14.9625 8.60925V7.05304H18.0749V8.60925C18.0749 9.46747 17.3767 10.1656 16.5187 10.1656C15.6606 10.1656 14.9625 9.46747 14.9625 8.60925ZM10.4438 7.05304H13.5562V8.60925C13.5562 9.46747 12.858 10.1656 12 10.1656C11.1418 10.1656 10.4438 9.46747 10.4438 8.60925V7.05304ZM5.92493 7.05304H9.03754V8.60925C9.03754 9.46747 8.33936 10.1656 7.48132 10.1656C6.62311 10.1656 5.92511 9.46747 5.92511 8.60925V7.05304H5.92493ZM1.40625 7.05304H4.51868V8.60925C4.51868 9.46747 3.82068 10.1656 2.96246 10.1656C2.10443 10.1656 1.40625 9.46747 1.40625 8.60925V7.05304ZM2.91266 21.0359V11.5706C2.92914 11.5708 2.9458 11.5719 2.96246 11.5719C3.86719 11.5719 4.67798 11.1638 5.2218 10.5225C5.76581 11.1638 6.57642 11.5719 7.48114 11.5719C8.38586 11.5719 9.19666 11.1638 9.74066 10.5225C10.2845 11.1638 11.0953 11.5719 12 11.5719C12.9047 11.5719 13.7155 11.1638 14.2593 10.5225C14.4714 10.7725 14.7239 10.9871 15.007 11.1557V22.2156H4.09222C3.44183 22.2156 2.91266 21.6865 2.91266 21.0359ZM19.9078 22.2156H16.4132V17.5325H21.0875V21.0359C21.0875 21.6865 20.5583 22.2156 19.9078 22.2156ZM21.0875 16.1263H16.4132V11.5692C16.4484 11.5704 16.4833 11.5719 16.5187 11.5719C17.4234 11.5719 18.2342 11.1638 18.778 10.5225C19.3218 11.1638 20.1326 11.5719 21.0375 11.5719C21.0542 11.5719 21.0709 11.5708 21.0875 11.5706V16.1263ZM22.5938 8.60925C22.5938 9.46747 21.8956 10.1656 21.0375 10.1656C20.1793 10.1656 19.4813 9.46747 19.4813 8.60925V7.05304H22.5938V8.60925Z" fill="#fff"/>
<path d="M8.9599 15.5903C7.17755 15.5903 5.72754 17.0403 5.72754 18.8227C5.72754 19.1516 5.82257 19.4707 6.00238 19.7454C6.31549 20.2238 6.8432 20.5093 7.41412 20.5093C7.81476 20.5093 8.1319 20.4153 8.38678 20.3399C8.59698 20.2776 8.76324 20.2284 8.9599 20.2284C9.15656 20.2284 9.32263 20.2776 9.53284 20.3399C9.78772 20.4153 10.1049 20.5093 10.5055 20.5093C11.0766 20.5093 11.6043 20.2236 11.9172 19.7454C12.097 19.4707 12.1923 19.1517 12.1923 18.8227C12.1923 17.0403 10.7421 15.5903 8.9599 15.5903ZM10.7406 18.9752C10.6882 19.0552 10.6003 19.103 10.5055 19.103C10.3088 19.103 10.1428 19.0538 9.93237 18.9915C9.67749 18.9161 9.36035 18.822 8.9599 18.822C8.55927 18.822 8.24194 18.9161 7.98724 18.9915C7.77686 19.0538 7.61078 19.103 7.41412 19.103C7.31927 19.103 7.23138 19.0552 7.17883 18.975C7.1488 18.9293 7.13361 18.878 7.13361 18.8227C7.13361 17.8156 7.95282 16.9966 8.95972 16.9966C9.96661 16.9966 10.7858 17.8156 10.7858 18.8227C10.786 18.878 10.7706 18.9293 10.7406 18.9752Z" fill="#fff"/>
<path d="M6.44946 15.3547C6.63422 15.3547 6.81549 15.2797 6.94641 15.1489C7.0777 15.0176 7.15259 14.8367 7.15259 14.6516C7.15259 14.4665 7.07751 14.285 6.94641 14.1543C6.81549 14.0234 6.63458 13.9485 6.44946 13.9485C6.26434 13.9485 6.08289 14.0234 5.95215 14.1543C5.82141 14.285 5.74634 14.4665 5.74634 14.6516C5.74634 14.8367 5.82141 15.0182 5.95215 15.1489C6.08289 15.2797 6.26434 15.3547 6.44946 15.3547Z" fill="#fff"/>
<path d="M8.0896 14.4841C8.27435 14.4841 8.45581 14.4091 8.58655 14.2783C8.71729 14.1476 8.79236 13.9661 8.79236 13.781C8.79236 13.5959 8.71729 13.415 8.58655 13.2841C8.45581 13.153 8.2749 13.0779 8.0896 13.0779C7.90448 13.0779 7.72321 13.153 7.59229 13.2841C7.46155 13.415 7.38647 13.5959 7.38647 13.781C7.38647 13.9661 7.46155 14.1476 7.59229 14.2783C7.72321 14.4091 7.90448 14.4841 8.0896 14.4841Z" fill="#fff"/>
<path d="M9.83008 14.4841C10.0152 14.4841 10.1961 14.4091 10.3268 14.2783C10.4581 14.1476 10.5332 13.9661 10.5332 13.781C10.5332 13.5959 10.4581 13.415 10.3268 13.2841C10.1961 13.153 10.0152 13.0779 9.83008 13.0779C9.64496 13.0779 9.46387 13.153 9.33276 13.2841C9.20184 13.415 9.12695 13.5959 9.12695 13.781C9.12695 13.9661 9.20184 14.1476 9.33276 14.2783C9.4635 14.4091 9.64496 14.4841 9.83008 14.4841Z" fill="#fff"/>
<path d="M11.4702 15.3547C11.6553 15.3547 11.8364 15.2797 11.9675 15.1489C12.0983 15.0176 12.1733 14.8367 12.1733 14.6516C12.1733 14.4665 12.0983 14.2856 11.9675 14.1543C11.8362 14.0234 11.6553 13.9485 11.4702 13.9485C11.2851 13.9485 11.1036 14.0234 10.9729 14.1543C10.8422 14.285 10.7671 14.4665 10.7671 14.6516C10.7671 14.8367 10.8422 15.0176 10.9729 15.1489C11.1036 15.2797 11.2851 15.3547 11.4702 15.3547Z" fill="#fff"/>
</g>
<defs>
<clipPath id="clip0_331_1932">
<rect width="24" height="24" fill="white"/>
</clipPath>
</defs>
</svg>
