<svg width="24" height="24" viewBox="0 0 24 24" fill="none" xmlns="http://www.w3.org/2000/svg">
<path d="M15.8101 20.18C15.5501 20.18 15.2801 20.17 14.9901 20.14C14.4701 20.1 13.8801 20 13.2701 19.85L11.5901 19.45C6.98007 18.36 5.47007 15.92 6.55007 11.32L7.53007 7.13001C7.75007 6.18002 8.01007 5.41002 8.33007 4.77002C10.0501 1.22002 13.3401 1.54001 15.6801 2.09001L17.3501 2.48001C19.6901 3.03001 21.1701 3.90001 22.0001 5.23002C22.8201 6.56002 22.9501 8.27001 22.4001 10.61L21.4201 14.79C20.5601 18.45 18.7701 20.18 15.8101 20.18ZM13.1201 3.25001C11.4501 3.25001 10.3901 3.94002 9.68007 5.42002C9.42007 5.96002 9.19007 6.63001 8.99007 7.47001L8.01007 11.66C7.12007 15.44 8.15007 17.09 11.9301 17.99L13.6101 18.39C14.1501 18.52 14.6601 18.6 15.1201 18.64C17.8401 18.91 19.1901 17.72 19.9501 14.45L20.9301 10.27C21.3801 8.34002 21.3201 6.99002 20.7201 6.02001C20.1201 5.05001 18.9401 4.39002 17.0001 3.94002L15.3301 3.55001C14.5001 3.35001 13.7601 3.25001 13.1201 3.25001Z" fill="#fff"/>
<path d="M8.33005 22.2499C5.76005 22.2499 4.12005 20.7099 3.07005 17.4599L1.79005 13.5099C0.370052 9.10993 1.64005 6.62993 6.02005 5.20993L7.60005 4.69993C8.12005 4.53993 8.51005 4.42993 8.86005 4.36993C9.15005 4.30993 9.43005 4.41993 9.60005 4.64993C9.77005 4.87993 9.80005 5.17993 9.68005 5.43993C9.42005 5.96993 9.19005 6.63993 9.00005 7.47993L8.02005 11.6699C7.13005 15.4499 8.16005 17.0999 11.9401 17.9999L13.6201 18.3999C14.1601 18.5299 14.6701 18.6099 15.1301 18.6499C15.4501 18.6799 15.7101 18.8999 15.8001 19.2099C15.8801 19.5199 15.7601 19.8399 15.5001 20.0199C14.8401 20.4699 14.0101 20.8499 12.9601 21.1899L11.3801 21.7099C10.2301 22.0699 9.23005 22.2499 8.33005 22.2499ZM7.78005 6.21993L6.49005 6.63993C2.92005 7.78993 2.07005 9.46993 3.22005 13.0499L4.50005 16.9999C5.66005 20.5699 7.34005 21.4299 10.9101 20.2799L12.4901 19.7599C12.5501 19.7399 12.6001 19.7199 12.6601 19.6999L11.6001 19.4499C6.99005 18.3599 5.48005 15.9199 6.56005 11.3199L7.54005 7.12993C7.61005 6.80993 7.69005 6.49993 7.78005 6.21993Z" fill="#fff"/>
<path d="M17.4904 10.51C17.4304 10.51 17.3704 10.5 17.3004 10.49L12.4504 9.26002C12.0504 9.16002 11.8104 8.75002 11.9104 8.35002C12.0104 7.95002 12.4204 7.71002 12.8204 7.81002L17.6704 9.04002C18.0704 9.14002 18.3104 9.55002 18.2104 9.95002C18.1304 10.28 17.8204 10.51 17.4904 10.51Z" fill="#fff"/>
<path d="M14.5601 13.8899C14.5001 13.8899 14.4401 13.8799 14.3701 13.8699L11.4601 13.1299C11.0601 13.0299 10.8201 12.6199 10.9201 12.2199C11.0201 11.8199 11.4301 11.5799 11.8301 11.6799L14.7401 12.4199C15.1401 12.5199 15.3801 12.9299 15.2801 13.3299C15.2001 13.6699 14.9001 13.8899 14.5601 13.8899Z" fill="#fff"/>
</svg>
