<svg width="29" height="24" viewBox="0 0 29 24" fill="none" xmlns="http://www.w3.org/2000/svg">
<path d="M0.0179841 9.74901C0.210572 9.17575 0.6527 8.84228 1.13754 8.52679C2.50739 7.63355 3.863 6.71782 5.22385 5.81183C5.29016 5.75989 5.36116 5.71424 5.43592 5.67544C5.64874 5.58477 5.84808 5.608 5.97997 5.81258C6.11186 6.01716 6.07738 6.206 5.90053 6.36711C5.83599 6.42086 5.76734 6.46947 5.69521 6.51249C4.21745 7.49566 2.7392 8.47958 1.26044 9.46425C1.05586 9.59989 0.892496 9.75726 0.867766 10.012C0.850888 10.134 0.871098 10.2581 0.925762 10.3684C0.980426 10.4786 1.06702 10.5699 1.17426 10.6303C1.4208 10.7801 1.67259 10.7562 1.91314 10.5966C2.62054 10.1249 3.32845 9.65435 4.03685 9.18474C7.36705 6.96811 10.6967 4.75022 14.0259 2.53109C14.3017 2.346 14.5168 2.35124 14.7881 2.53109C18.7442 5.17287 22.7029 7.8104 26.6641 10.4437C26.7701 10.5201 26.8807 10.5899 26.9953 10.6528C27.1339 10.7233 27.2931 10.742 27.4443 10.7054C27.5954 10.6689 27.7285 10.5795 27.8196 10.4534C27.9146 10.3235 27.9568 10.1623 27.9376 10.0025C27.9184 9.84271 27.8393 9.69613 27.7162 9.59239C27.6454 9.53201 27.5702 9.47691 27.4914 9.42754C23.3074 6.63988 19.1232 3.85273 14.9387 1.06607C14.495 0.770822 14.3174 0.77307 13.8708 1.07057C11.7316 2.49487 7.84914 5.07795 5.70945 6.50125C5.63344 6.55547 5.55326 6.60358 5.46965 6.64513C5.25832 6.74179 5.07997 6.6766 4.95783 6.49525C4.89821 6.41521 4.87137 6.31544 4.88279 6.2163C4.89421 6.11715 4.94302 6.02609 5.01927 5.9617C5.08244 5.90522 5.15095 5.85502 5.22385 5.81183L13.4264 0.350424C14.1271 -0.115683 14.6741 -0.117932 15.3748 0.350424C17.6619 1.87214 19.9485 3.39586 22.2345 4.92158C22.3095 4.97179 22.3844 5.02049 22.5021 5.09618V3.37338C22.5021 2.5723 22.867 2.20811 23.6673 2.20736C23.9948 2.20736 24.323 2.20736 24.6505 2.20736C25.3249 2.21186 25.7086 2.59478 25.7116 3.27221C25.7161 4.48919 25.7199 5.70617 25.7064 6.92314C25.7064 7.15994 25.7813 7.28884 25.9776 7.41323C26.5854 7.79841 27.1684 8.2233 27.7761 8.60173C28.252 8.89623 28.6259 9.25368 28.7803 9.80522V10.3672C28.6304 10.7779 28.4408 11.1571 28.0309 11.3714C27.5019 11.6487 26.9735 11.6524 26.4572 11.3279C26.2212 11.1781 25.9904 11.0214 25.7483 10.8618C25.6674 10.963 25.7049 11.0687 25.7049 11.1616C25.7049 14.7386 25.7049 18.3151 25.7049 21.891C25.7049 22.2695 25.6382 22.6149 25.3736 22.9019C25.2507 23.0372 25.1 23.1445 24.9319 23.2164C24.7638 23.2882 24.5822 23.3231 24.3995 23.3186C23.3601 23.3186 19.8767 23.3186 18.8381 23.3186C18.5076 23.3186 18.324 23.1522 18.3292 22.8877C18.3345 22.6232 18.5181 22.4733 18.8538 22.4718C19.846 22.4718 23.2829 22.4718 24.2751 22.4718C24.7397 22.4718 24.8581 22.3542 24.8588 21.8925C24.8588 18.1007 24.8588 14.3092 24.8588 10.5179C24.8661 10.441 24.8509 10.3638 24.8153 10.2953C24.7797 10.2268 24.7251 10.1701 24.658 10.1319C21.3018 7.90382 17.9489 5.67145 14.5992 3.43483C14.4621 3.34341 14.3684 3.30669 14.2088 3.4131C10.8521 5.65771 7.49169 7.89633 4.12752 10.1289C4.05958 10.1652 4.00362 10.2204 3.96638 10.2879C3.92914 10.3553 3.91223 10.432 3.9177 10.5089C3.9237 14.3007 3.92519 18.0925 3.9222 21.8843C3.9222 22.3632 4.0346 22.4718 4.52169 22.4718C9.41757 22.4718 14.3135 22.4718 19.2093 22.4718C19.34 22.467 19.4709 22.4758 19.5998 22.498C19.6888 22.5138 19.769 22.5618 19.8251 22.6328C19.8812 22.7038 19.9092 22.7929 19.904 22.8832C19.9148 22.978 19.889 23.0734 19.8319 23.1498C19.7748 23.2263 19.6907 23.2781 19.5968 23.2946C19.4959 23.3149 19.393 23.3232 19.2903 23.3193C14.3662 23.3193 9.4413 23.3126 4.51645 23.3276C3.62694 23.3276 3.05518 22.7431 3.06117 21.8641C3.08515 18.3068 3.07091 14.7488 3.07091 11.1916V10.8349C2.84086 10.9847 2.64228 11.0994 2.45943 11.2358C1.47026 11.9739 0.235302 11.3946 0.0374685 10.4025C0.0374685 10.3875 0.0127393 10.377 0 10.3642L0.0179841 9.74901Z" fill="#fff"/>
<path d="M24.8663 6.66617C24.3643 6.33345 23.9154 6.03295 23.4628 5.7392C23.4202 5.71155 23.3865 5.67231 23.3655 5.6261C23.3445 5.57989 23.3372 5.52865 23.3444 5.47842C23.3444 4.75827 23.3496 4.03813 23.3444 3.31799C23.3444 3.13364 23.3953 3.04072 23.5984 3.04746C23.9446 3.0572 24.2908 3.05271 24.6363 3.04746C24.7794 3.04746 24.8693 3.08044 24.8686 3.24829C24.8656 4.37085 24.8663 5.49191 24.8663 6.66617Z" fill="#FEFEFE"/>
<path d="M19.6018 14.7639C19.6025 14.7368 19.5989 14.7097 19.5913 14.6837C19.5667 14.4524 19.4767 14.2329 19.3319 14.0509C19.1598 13.8398 18.9179 13.6971 18.6498 13.6487C18.3817 13.6004 18.1052 13.6495 17.8701 13.7873C17.5202 13.9773 17.2355 14.2682 17.0531 14.6222C16.8706 14.9762 16.7989 15.3768 16.8472 15.7721C16.8673 15.9489 16.9266 16.1191 17.0207 16.2701C17.1149 16.4212 17.2415 16.5493 17.3913 16.6453C17.564 16.751 17.7627 16.8065 17.9651 16.8056C18.1037 16.8052 18.2412 16.7816 18.3721 16.736C18.6255 16.6437 18.8554 16.4965 19.0453 16.3051C19.2353 16.1137 19.3806 15.8827 19.4711 15.6287C19.5028 15.55 19.5282 15.4688 19.547 15.3861C19.5595 15.3252 19.5765 15.2653 19.5976 15.2068L19.6103 14.8651L19.6229 14.7997L19.6018 14.7639ZM18.9332 14.9136C18.9303 15.1379 18.8707 15.3577 18.7601 15.5528C18.6495 15.7479 18.4914 15.9118 18.3004 16.0294C18.1959 16.0987 18.071 16.1307 17.9461 16.1201C17.835 16.1102 17.7313 16.0606 17.6538 15.9804C17.5764 15.9002 17.5304 15.7948 17.5242 15.6835C17.4932 15.4308 17.5365 15.1744 17.6489 14.9459C17.7613 14.7174 17.9379 14.5266 18.157 14.3969C18.2485 14.3424 18.3522 14.312 18.4586 14.3083H18.5198C18.6228 14.3245 18.7173 14.375 18.7881 14.4515C18.8589 14.5281 18.9018 14.6262 18.91 14.7301C18.9242 14.7903 18.9319 14.8518 18.9332 14.9136Z" fill="#fff"/>
<path d="M10.8757 16.641C11.0259 16.5448 11.1526 16.4163 11.2468 16.2649C11.3409 16.1134 11.4001 15.9429 11.4199 15.7657C11.467 15.3698 11.3938 14.969 11.2098 14.6154C11.0258 14.2617 10.7396 13.9717 10.3885 13.783C10.1534 13.6485 9.87809 13.602 9.61184 13.6518C9.34559 13.7017 9.10575 13.8446 8.93522 14.0551C8.79372 14.2305 8.70519 14.4427 8.68 14.6668C8.66945 14.7016 8.66447 14.7379 8.66524 14.7743V14.7891V15.1498L8.67789 15.2025C8.6991 15.2619 8.71671 15.3224 8.73063 15.3839C8.74806 15.4661 8.77276 15.5466 8.80445 15.6244C8.89489 15.8784 9.04026 16.1094 9.23022 16.3008C9.42017 16.4922 9.65002 16.6393 9.90337 16.7317C10.0343 16.7773 10.1718 16.8008 10.3105 16.8013C10.51 16.8006 10.7055 16.7452 10.8757 16.641ZM10.3316 16.12C10.2027 16.1302 10.0742 16.0968 9.96665 16.0251C9.77638 15.9088 9.61859 15.7464 9.50795 15.5528C9.39732 15.3591 9.33744 15.1407 9.33387 14.9178C9.33413 14.8518 9.3412 14.7861 9.35497 14.7216C9.36599 14.6182 9.41155 14.5216 9.48427 14.4474C9.55699 14.3731 9.65263 14.3256 9.75573 14.3124H9.81479C9.9219 14.3157 10.0264 14.3462 10.1185 14.401C10.3376 14.5307 10.5142 14.7215 10.6266 14.95C10.739 15.1786 10.7823 15.4349 10.7513 15.6876C10.7442 15.7979 10.6981 15.902 10.6212 15.9812C10.5442 16.0605 10.4415 16.1097 10.3316 16.12Z" fill="#fff"/>
<path d="M18.138 18.9338V18.841C18.138 18.7714 18.119 18.7018 18.1042 18.63V18.5984C18.0861 18.5162 18.0628 18.4352 18.0346 18.3558C18.0114 18.2905 17.984 18.2272 17.9481 18.1449C17.9403 18.1306 17.9332 18.1158 17.927 18.1006C17.906 18.0605 17.8806 18.0205 17.8596 17.9825C17.8385 17.9445 17.8089 17.8981 17.7794 17.8538L17.7246 17.7779C17.6997 17.7414 17.6729 17.7062 17.6444 17.6724L17.6064 17.6408L17.5832 17.6176L17.5305 17.5607L17.5073 17.5353C17.4757 17.5016 17.444 17.4678 17.4082 17.4341C16.913 16.9513 16.5143 16.3786 16.2333 15.7467C16.1026 15.4193 15.9083 15.1211 15.6617 14.8692C15.6026 14.8126 15.5407 14.7591 15.4761 14.7089C15.1094 14.4246 14.6617 14.2643 14.1979 14.2512H14.1473H14.065C13.6053 14.2642 13.1619 14.4239 12.7994 14.7068C12.7332 14.7567 12.6698 14.8102 12.6096 14.8671C12.3734 15.1214 12.188 15.4185 12.0633 15.7425C11.7823 16.3744 11.3836 16.9471 10.8884 17.4299C10.8526 17.4636 10.821 17.4974 10.7893 17.5332L10.7745 17.5501C10.7535 17.5691 10.7324 17.5923 10.7049 17.6218L10.6902 17.6366C10.6811 17.6459 10.6727 17.6558 10.6649 17.6661C10.6363 17.6998 10.6096 17.735 10.5847 17.7716L10.5278 17.8496C10.5003 17.8918 10.475 17.934 10.4497 17.9762C10.4244 18.0184 10.4033 18.0542 10.3822 18.0964L10.3548 18.1555C10.3253 18.2187 10.2979 18.282 10.2683 18.3664C10.2425 18.4411 10.2207 18.5171 10.2029 18.5942V18.6216C10.1875 18.6912 10.1762 18.7616 10.1692 18.8325C10.1692 18.8621 10.1692 18.8937 10.1692 18.9253V18.9823C10.1692 19.016 10.1692 19.0477 10.1692 19.0793C10.1692 19.111 10.1692 19.151 10.1692 19.1848V19.2544C10.1692 19.2818 10.1692 19.3113 10.1692 19.3409C10.2041 19.6451 10.3049 19.938 10.4645 20.1993C10.4728 20.2131 10.4828 20.2258 10.494 20.2373C10.7347 20.6128 11.0832 20.9069 11.4938 21.081C11.7965 21.2166 12.1239 21.2884 12.4556 21.2919C12.6545 21.2958 12.853 21.2738 13.0462 21.2265C13.7685 21.0353 14.5281 21.0353 15.2504 21.2265C15.7681 21.3621 16.3166 21.3167 16.8049 21.0979C17.2149 20.9245 17.5622 20.6302 17.8005 20.2542C17.8129 20.2403 17.8242 20.2255 17.8342 20.2099C17.9941 19.9479 18.0949 19.6542 18.1295 19.3493C18.1295 19.3219 18.1295 19.2924 18.1295 19.2649V19.1953C18.1295 19.1616 18.1295 19.1257 18.1295 19.0899C18.1295 19.054 18.1295 19.0245 18.1295 18.9949L18.138 18.9338ZM17.4693 19.0624C17.4664 19.2239 17.4416 19.3843 17.3955 19.5391C17.3015 19.8453 17.1114 20.113 16.8534 20.3027C16.8378 20.3087 16.823 20.3165 16.8091 20.3259C16.6072 20.4606 16.3795 20.5518 16.1405 20.5938C15.9009 20.6361 15.6551 20.6275 15.4191 20.5685C15.0266 20.4654 14.6227 20.4116 14.2169 20.4082H14.0819C13.6755 20.4118 13.271 20.4649 12.8775 20.5663C12.6413 20.6268 12.3948 20.6361 12.1547 20.5935C11.9146 20.5509 11.6864 20.4575 11.4854 20.3196L11.4601 20.309C11.1939 20.1211 10.9974 19.8504 10.9011 19.5391C10.856 19.3877 10.8311 19.231 10.8273 19.073C10.8271 19.0023 10.8328 18.9318 10.8442 18.8621C10.8728 18.6718 10.9387 18.489 11.0382 18.3242C11.1119 18.2102 11.199 18.1054 11.2976 18.012C11.6942 17.632 12.0402 17.2023 12.327 16.7338C12.4908 16.461 12.6394 16.1794 12.772 15.8901L12.7973 15.8353C12.9129 15.5733 13.1021 15.3505 13.3419 15.1941C13.5818 15.0377 13.862 14.9545 14.1483 14.9545C14.4347 14.9545 14.7148 15.0377 14.9547 15.1941C15.1945 15.3505 15.3838 15.5733 15.4993 15.8353L15.5267 15.8922C15.6577 16.1819 15.8056 16.4636 15.9697 16.7359C16.2564 17.2051 16.6024 17.6354 16.999 18.0162C17.0963 18.1081 17.182 18.2115 17.2542 18.3242C17.3556 18.4899 17.423 18.6742 17.4525 18.8663C17.4622 18.9313 17.4678 18.9968 17.4693 19.0624Z" fill="#fff"/>
<path d="M12.5463 14.0425C12.5779 14.0446 12.6096 14.0446 12.6412 14.0425C12.8075 14.02 12.9661 13.9581 13.1036 13.862C13.2412 13.7659 13.3539 13.6383 13.4322 13.4899C13.5672 13.2603 13.6473 13.0026 13.6663 12.7369C13.7035 12.4366 13.6703 12.1318 13.5692 11.8466C13.4682 11.5614 13.3021 11.3037 13.0842 11.0938C12.8968 10.9084 12.6454 10.8019 12.3818 10.7964C12.219 10.8014 12.0597 10.8456 11.9176 10.9253C11.7755 11.005 11.6547 11.1178 11.5655 11.2541C11.3493 11.578 11.2408 11.9618 11.2555 12.3509C11.2509 12.8379 11.4301 13.3086 11.7575 13.6692C11.8559 13.7827 11.9769 13.8745 12.1127 13.9388C12.2485 14.003 12.3961 14.0384 12.5463 14.0425ZM12.076 11.735C12.0973 11.6944 12.122 11.6556 12.1498 11.619C12.1991 11.5459 12.2746 11.4946 12.3607 11.4756H12.3839C12.4624 11.4814 12.5366 11.5133 12.5948 11.5663C12.8145 11.7579 12.9539 12.0252 12.9851 12.3151C12.9983 12.3888 13.004 12.4637 13.0019 12.5386C13.0096 12.7735 12.944 13.005 12.8142 13.2009C12.7883 13.2438 12.7537 13.2808 12.7127 13.3095C12.6716 13.3382 12.625 13.358 12.5759 13.3676C12.5273 13.3685 12.4792 13.3592 12.4345 13.3403C12.3898 13.3214 12.3496 13.2934 12.3164 13.2579C12.0948 13.0482 11.9626 12.7611 11.9473 12.4564C11.9152 12.2084 11.9601 11.9566 12.076 11.735Z" fill="#fff"/>
<path d="M14.8433 13.4857C14.9217 13.6334 15.0341 13.7604 15.1713 13.8561C15.3084 13.9519 15.4664 14.0136 15.6321 14.0362C15.6637 14.0383 15.6954 14.0383 15.727 14.0362C15.8776 14.0318 16.0256 13.9959 16.1614 13.9309C16.2973 13.8658 16.418 13.7731 16.5159 13.6587C16.844 13.296 17.0233 12.823 17.0179 12.334C17.0328 11.9494 16.9274 11.5697 16.7163 11.2478C16.6385 11.123 16.5332 11.0176 16.4085 10.9396C16.2838 10.8617 16.143 10.8132 15.9967 10.7979C15.8504 10.7827 15.7026 10.801 15.5645 10.8516C15.4264 10.9021 15.3016 10.9835 15.1997 11.0896C14.9798 11.298 14.8117 11.5549 14.7088 11.8398C14.6059 12.1247 14.571 12.4298 14.607 12.7306C14.6264 12.9972 14.7072 13.2556 14.8433 13.4857ZM15.2778 12.5344C15.2755 12.458 15.2819 12.3816 15.2968 12.3066C15.3268 12.0181 15.4656 11.7519 15.6849 11.5621C15.7431 11.5091 15.8173 11.4772 15.8958 11.4714H15.919C16.0054 11.4897 16.0811 11.5412 16.1299 11.6148C16.1595 11.6512 16.185 11.6908 16.2058 11.7329C16.3171 11.9537 16.3597 12.2027 16.3282 12.4479C16.3126 12.7537 16.1796 13.0416 15.957 13.2516C15.9239 13.2871 15.8837 13.3153 15.839 13.3342C15.7943 13.3531 15.7461 13.3623 15.6975 13.3613C15.6486 13.3518 15.6022 13.332 15.5615 13.3033C15.5208 13.2746 15.4866 13.2375 15.4613 13.1946C15.3334 12.9988 15.2693 12.7682 15.2778 12.5344Z" fill="#fff"/>
<path d="M15.6366 7.62452L14.8283 7.63092L14.8347 8.43769L13.9635 8.44269L13.9571 7.63592L13.1488 7.64232L13.1438 6.77252L13.9521 6.76612L13.9457 5.95935L14.8169 5.95435L14.8233 6.76112L15.6315 6.75472L15.6366 7.62452Z" stroke="#fff" stroke-width="0.419065" stroke-miterlimit="10" stroke-linecap="round" stroke-linejoin="round"/>
<path d="M14.3942 4.90576H14.3861C13.1198 4.90576 12.0933 5.9323 12.0933 7.19857C12.0933 8.46487 13.1198 9.4914 14.3861 9.4914H14.3942C15.6605 9.4914 16.687 8.46487 16.687 7.19857C16.687 5.9323 15.6605 4.90576 14.3942 4.90576Z" stroke="#fff" stroke-width="0.419065" stroke-miterlimit="10" stroke-linecap="round" stroke-linejoin="round"/>
</svg>
